<?xml version="1.0" encoding="utf-8"?>
<!-- Generator: Adobe Illustrator 16.0.0, SVG Export Plug-In . SVG Version: 6.00 Build 0)  -->
<!DOCTYPE svg PUBLIC "-//W3C//DTD SVG 1.1//EN" "http://www.w3.org/Graphics/SVG/1.1/DTD/svg11.dtd">
<svg version="1.1" id="Layer_1" xmlns="http://www.w3.org/2000/svg" xmlns:xlink="http://www.w3.org/1999/xlink" x="0px" y="0px"
	 width="800px" height="800px" viewBox="0 0 800 800" enable-background="new 0 0 800 800" xml:space="preserve">
<g>
	<defs>
		<rect id="SVGID_1_" width="800" height="800"/>
	</defs>
	<clipPath id="SVGID_2_">
		<use xlink:href="#SVGID_1_"  overflow="visible"/>
	</clipPath>
	<path clip-path="url(#SVGID_2_)" fill="#FFFFFF" d="M72,48c0,13.807-11.193,25-25,25S22,61.807,22,48s11.193-25,25-25
		S72,34.193,72,48"/>
</g>
<g>
	<defs>
		<rect id="SVGID_3_" width="800" height="800"/>
	</defs>
	<clipPath id="SVGID_4_">
		<use xlink:href="#SVGID_3_"  overflow="visible"/>
	</clipPath>
	<path clip-path="url(#SVGID_4_)" fill="#FFFFFF" d="M142,48c0,13.807-11.193,25-25,25S92,61.807,92,48s11.193-25,25-25
		S142,34.193,142,48"/>
</g>
<g>
	<defs>
		<rect id="SVGID_5_" width="800" height="800"/>
	</defs>
	<clipPath id="SVGID_6_">
		<use xlink:href="#SVGID_5_"  overflow="visible"/>
	</clipPath>
	<path clip-path="url(#SVGID_6_)" fill="#FFFFFF" d="M212,48c0,13.807-11.193,25-25,25s-25-11.193-25-25s11.193-25,25-25
		S212,34.193,212,48"/>
</g>
<g>
	<defs>
		<rect id="SVGID_7_" width="800" height="800"/>
	</defs>
	<clipPath id="SVGID_8_">
		<use xlink:href="#SVGID_7_"  overflow="visible"/>
	</clipPath>
	<rect x="242" y="38" clip-path="url(#SVGID_8_)" fill="#333333" width="18" height="3"/>
	<rect x="517" y="38" clip-path="url(#SVGID_8_)" fill="#F9F9F9" width="18" height="3"/>
	<rect x="517" y="45" clip-path="url(#SVGID_8_)" fill="#F9F9F9" width="18" height="3"/>
	<rect x="517" y="52" clip-path="url(#SVGID_8_)" fill="#F9F9F9" width="18" height="3"/>
</g>
<g>
	<defs>
		<rect id="SVGID_9_" width="800" height="800"/>
	</defs>
	<clipPath id="SVGID_10_">
		<use xlink:href="#SVGID_9_"  overflow="visible"/>
	</clipPath>
	<rect x="242" y="45" clip-path="url(#SVGID_10_)" fill="#333333" width="18" height="3"/>
</g>
<g>
	<defs>
		<rect id="SVGID_11_" width="800" height="800"/>
	</defs>
	<clipPath id="SVGID_12_">
		<use xlink:href="#SVGID_11_"  overflow="visible"/>
	</clipPath>
	<rect x="242" y="52" clip-path="url(#SVGID_12_)" fill="#333333" width="18" height="3"/>
</g>
<g>
	<defs>
		<rect id="SVGID_13_" width="800" height="800"/>
	</defs>
	<clipPath id="SVGID_14_">
		<use xlink:href="#SVGID_13_"  overflow="visible"/>
	</clipPath>
	<polygon clip-path="url(#SVGID_14_)" fill="#333333" points="304,40.137 301.863,38 294,45.862 286.137,38 284,40.137 291.863,48 
		284,55.862 286.137,58 294,50.137 301.863,58 304,55.862 296.137,48 	"/>
</g>
<g>
	<defs>
		<rect id="SVGID_15_" width="800" height="800"/>
	</defs>
	<clipPath id="SVGID_16_">
		<use xlink:href="#SVGID_15_"  overflow="visible"/>
	</clipPath>
	<polygon clip-path="url(#SVGID_16_)" fill="#FFFFFF" points="428,40.137 425.863,38 418,45.862 410.138,38 408,40.137 415.863,48 
		408,55.862 410.138,58 418,50.137 425.863,58 428,55.862 420.138,48 	"/>
</g>
<g>
	<defs>
		<rect id="SVGID_17_" width="800" height="800"/>
	</defs>
	<clipPath id="SVGID_18_">
		<use xlink:href="#SVGID_17_"  overflow="visible"/>
	</clipPath>
	<path clip-path="url(#SVGID_18_)" fill="#333333" d="M339.552,35c-5.247,0-9.5,4.253-9.5,9.5c0,2.255,0.789,4.324,2.104,5.953
		l-4.714,4.714c-0.588,0.586-0.588,1.536,0,2.121c0.293,0.293,0.677,0.44,1.061,0.44c0.385,0,0.768-0.147,1.062-0.44l4.822-4.823
		c1.487,0.968,3.262,1.535,5.167,1.535c5.247,0,9.5-4.253,9.5-9.5S344.799,35,339.552,35 M339.552,51c-3.59,0-6.5-2.91-6.5-6.5
		s2.91-6.5,6.5-6.5s6.5,2.91,6.5,6.5S343.142,51,339.552,51"/>
</g>
<g>
	<defs>
		<rect id="SVGID_19_" width="800" height="800"/>
	</defs>
	<clipPath id="SVGID_20_">
		<use xlink:href="#SVGID_19_"  overflow="visible"/>
	</clipPath>
	<path clip-path="url(#SVGID_20_)" fill="#FFFFFF" d="M381.153,35c-5.247,0-9.5,4.253-9.5,9.5c0,2.255,0.789,4.324,2.102,5.953
		l-4.714,4.714c-0.586,0.586-0.586,1.536,0,2.121c0.293,0.293,0.677,0.44,1.061,0.44c0.387,0,0.77-0.147,1.062-0.44l4.824-4.823
		c1.485,0.968,3.26,1.535,5.167,1.535c5.247,0,9.5-4.253,9.5-9.5S386.4,35,381.153,35 M381.153,51c-3.59,0-6.5-2.91-6.5-6.5
		s2.91-6.5,6.5-6.5s6.5,2.91,6.5,6.5S384.743,51,381.153,51"/>
</g>
<g>
	<defs>
		<rect id="SVGID_21_" width="800" height="800"/>
	</defs>
	<clipPath id="SVGID_22_">
		<use xlink:href="#SVGID_21_"  overflow="visible"/>
	</clipPath>
	<polygon clip-path="url(#SVGID_22_)" fill="#333333" points="129,48.5 110,59 110,38 	"/>
</g>
<g>
	<defs>
		<rect id="SVGID_23_" width="800" height="800"/>
	</defs>
	<clipPath id="SVGID_24_">
		<use xlink:href="#SVGID_23_"  overflow="visible"/>
	</clipPath>
	<path clip-path="url(#SVGID_24_)" fill="#333333" d="M46.5,44c-1.93,0-3.5,1.57-3.5,3.5s1.57,3.5,3.5,3.5s3.5-1.57,3.5-3.5
		S48.43,44,46.5,44"/>
</g>
<g>
	<defs>
		<rect id="SVGID_25_" width="800" height="800"/>
	</defs>
	<clipPath id="SVGID_26_">
		<use xlink:href="#SVGID_25_"  overflow="visible"/>
	</clipPath>
	<path clip-path="url(#SVGID_26_)" fill="#333333" d="M57.065,38.082l-12-0.093l0.007-1c0.004-0.552-0.44-1.003-0.992-1.008
		l-5-0.039c-0.552-0.004-1.003,0.44-1.008,0.992l-0.008,1l-2-0.016c-1.657-0.013-3.01,1.32-3.023,2.977l-0.101,13
		c-0.013,1.657,1.32,3.01,2.977,3.023l20.999,0.163c1.657,0.013,3.01-1.32,3.023-2.977l0.1-13
		C60.055,39.447,58.723,38.094,57.065,38.082 M46.45,53c-3.033-0.023-5.48-2.509-5.457-5.542s2.509-5.481,5.542-5.458
		c3.033,0.023,5.481,2.509,5.458,5.542S49.483,53.023,46.45,53"/>
</g>
<g>
	<defs>
		<rect id="SVGID_27_" width="800" height="800"/>
	</defs>
	<clipPath id="SVGID_28_">
		<use xlink:href="#SVGID_27_"  overflow="visible"/>
	</clipPath>
	<path clip-path="url(#SVGID_28_)" fill="#333333" d="M196,43.921v-1.547c0-5.203-3.785-8.98-9-8.98s-9,3.793-9,9.019v1.508
		c-3.171,1.128-5,4.054-5,7.498c0,4.418,3,8,8,8V42.414c0-4.158,3.014-6.019,6-6.019s6,1.849,6,5.98V59.42c5,0,8-3.582,8-8
		C201,47.976,199.171,45.05,196,43.921"/>
</g>
<g>
	<defs>
		<rect id="SVGID_29_" width="800" height="800"/>
	</defs>
	<clipPath id="SVGID_30_">
		<use xlink:href="#SVGID_29_"  overflow="visible"/>
	</clipPath>
	<path clip-path="url(#SVGID_30_)" fill="#4DBFA3" d="M72,373c0,13.807-11.193,25-25,25s-25-11.193-25-25s11.193-25,25-25
		S72,359.193,72,373"/>
</g>
<g>
	<defs>
		<rect id="SVGID_31_" width="800" height="800"/>
	</defs>
	<clipPath id="SVGID_32_">
		<use xlink:href="#SVGID_31_"  overflow="visible"/>
	</clipPath>
	<path clip-path="url(#SVGID_32_)" fill="#4DBFA3" d="M142,373c0,13.807-11.193,25-25,25s-25-11.193-25-25s11.193-25,25-25
		S142,359.193,142,373"/>
</g>
<g>
	<defs>
		<rect id="SVGID_33_" width="800" height="800"/>
	</defs>
	<clipPath id="SVGID_34_">
		<use xlink:href="#SVGID_33_"  overflow="visible"/>
	</clipPath>
	<path clip-path="url(#SVGID_34_)" fill="#4DBFA3" d="M212,373c0,13.807-11.193,25-25,25s-25-11.193-25-25s11.193-25,25-25
		S212,359.193,212,373"/>
</g>
<g>
	<defs>
		<rect id="SVGID_35_" width="800" height="800"/>
	</defs>
	<clipPath id="SVGID_36_">
		<use xlink:href="#SVGID_35_"  overflow="visible"/>
	</clipPath>
	<polygon clip-path="url(#SVGID_36_)" fill="#FCFCFC" points="129,373.5 110,384 110,363 	"/>
</g>
<g>
	<defs>
		<rect id="SVGID_37_" width="800" height="800"/>
	</defs>
	<clipPath id="SVGID_38_">
		<use xlink:href="#SVGID_37_"  overflow="visible"/>
	</clipPath>
	<path clip-path="url(#SVGID_38_)" fill="#F9F9F9" d="M46.5,369c-1.93,0-3.5,1.57-3.5,3.5s1.57,3.5,3.5,3.5s3.5-1.57,3.5-3.5
		S48.43,369,46.5,369"/>
</g>
<g>
	<defs>
		<rect id="SVGID_39_" width="800" height="800"/>
	</defs>
	<clipPath id="SVGID_40_">
		<use xlink:href="#SVGID_39_"  overflow="visible"/>
	</clipPath>
	<path clip-path="url(#SVGID_40_)" fill="#FFFFFF" d="M57.065,363.082l-12-0.093l0.007-1c0.004-0.552-0.44-1.003-0.992-1.008
		l-5-0.039c-0.552-0.004-1.003,0.44-1.008,0.992l-0.008,1l-2-0.016c-1.657-0.013-3.01,1.32-3.023,2.977l-0.101,13
		c-0.013,1.657,1.32,3.01,2.977,3.023l20.999,0.163c1.657,0.013,3.01-1.32,3.023-2.977l0.1-13
		C60.055,364.447,58.723,363.094,57.065,363.082 M46.45,378c-3.033-0.023-5.48-2.509-5.457-5.542s2.509-5.481,5.542-5.458
		c3.033,0.023,5.481,2.509,5.458,5.542S49.483,378.023,46.45,378"/>
</g>
<g>
	<defs>
		<rect id="SVGID_41_" width="800" height="800"/>
	</defs>
	<clipPath id="SVGID_42_">
		<use xlink:href="#SVGID_41_"  overflow="visible"/>
	</clipPath>
	<path clip-path="url(#SVGID_42_)" fill="#F9F9F9" d="M196,368.921v-1.547c0-5.203-3.785-8.98-9-8.98s-9,3.793-9,9.019v1.508
		c-3.171,1.128-5,4.054-5,7.498c0,4.418,3,8,8,8v-17.006c0-4.158,3.014-6.019,6-6.019s6,1.849,6,5.98v17.045c5,0,8-3.582,8-8
		C201,372.976,199.171,370.05,196,368.921"/>
</g>
<g>
	<defs>
		<rect id="SVGID_43_" width="800" height="800"/>
	</defs>
	<clipPath id="SVGID_44_">
		<use xlink:href="#SVGID_43_"  overflow="visible"/>
	</clipPath>
	<path clip-path="url(#SVGID_44_)" fill="#EECB3B" d="M281,373c0,13.807-11.193,25-25,25s-25-11.193-25-25s11.193-25,25-25
		S281,359.193,281,373"/>
</g>
<g>
	<defs>
		<rect id="SVGID_45_" width="800" height="800"/>
	</defs>
	<clipPath id="SVGID_46_">
		<use xlink:href="#SVGID_45_"  overflow="visible"/>
	</clipPath>
	<path clip-path="url(#SVGID_46_)" fill="#EECB3B" d="M351,373c0,13.807-11.193,25-25,25s-25-11.193-25-25s11.193-25,25-25
		S351,359.193,351,373"/>
</g>
<g>
	<defs>
		<rect id="SVGID_47_" width="800" height="800"/>
	</defs>
	<clipPath id="SVGID_48_">
		<use xlink:href="#SVGID_47_"  overflow="visible"/>
	</clipPath>
	<path clip-path="url(#SVGID_48_)" fill="#EECB3B" d="M421,373c0,13.807-11.192,25-25,25c-13.807,0-25-11.193-25-25s11.193-25,25-25
		C409.808,348,421,359.193,421,373"/>
</g>
<g>
	<defs>
		<rect id="SVGID_49_" width="800" height="800"/>
	</defs>
	<clipPath id="SVGID_50_">
		<use xlink:href="#SVGID_49_"  overflow="visible"/>
	</clipPath>
	<polygon clip-path="url(#SVGID_50_)" fill="#FCFCFC" points="338,373.5 319,384 319,363 	"/>
</g>
<g>
	<defs>
		<rect id="SVGID_51_" width="800" height="800"/>
	</defs>
	<clipPath id="SVGID_52_">
		<use xlink:href="#SVGID_51_"  overflow="visible"/>
	</clipPath>
	<path clip-path="url(#SVGID_52_)" fill="#F9F9F9" d="M255.5,369c-1.93,0-3.5,1.57-3.5,3.5s1.57,3.5,3.5,3.5s3.5-1.57,3.5-3.5
		S257.43,369,255.5,369"/>
</g>
<g>
	<defs>
		<rect id="SVGID_53_" width="800" height="800"/>
	</defs>
	<clipPath id="SVGID_54_">
		<use xlink:href="#SVGID_53_"  overflow="visible"/>
	</clipPath>
	<path clip-path="url(#SVGID_54_)" fill="#FFFFFF" d="M266.065,363.082l-12-0.093l0.007-1c0.004-0.552-0.44-1.003-0.992-1.008
		l-5-0.039c-0.552-0.004-1.003,0.44-1.008,0.992l-0.008,1l-2-0.016c-1.657-0.013-3.01,1.32-3.023,2.977l-0.101,13
		c-0.013,1.657,1.32,3.01,2.977,3.023l20.999,0.163c1.657,0.013,3.01-1.32,3.023-2.977l0.1-13
		C269.055,364.447,267.723,363.094,266.065,363.082 M255.45,378c-3.033-0.023-5.48-2.509-5.457-5.542s2.509-5.481,5.542-5.458
		c3.033,0.023,5.481,2.509,5.458,5.542S258.483,378.023,255.45,378"/>
</g>
<g>
	<defs>
		<rect id="SVGID_55_" width="800" height="800"/>
	</defs>
	<clipPath id="SVGID_56_">
		<use xlink:href="#SVGID_55_"  overflow="visible"/>
	</clipPath>
	<path clip-path="url(#SVGID_56_)" fill="#F9F9F9" d="M405,368.921v-1.547c0-5.203-3.785-8.98-9-8.98s-9,3.793-9,9.019v1.508
		c-3.171,1.128-5,4.054-5,7.498c0,4.418,3,8,8,8v-17.006c0-4.158,3.014-6.019,6-6.019s6,1.849,6,5.98v17.045c5,0,8-3.582,8-8
		C410,372.976,408.171,370.05,405,368.921"/>
</g>
<g>
	<defs>
		<rect id="SVGID_57_" width="800" height="800"/>
	</defs>
	<clipPath id="SVGID_58_">
		<use xlink:href="#SVGID_57_"  overflow="visible"/>
	</clipPath>
	<path clip-path="url(#SVGID_58_)" fill="#FF947B" d="M492,373c0,13.807-11.192,25-25,25s-25-11.193-25-25s11.192-25,25-25
		S492,359.193,492,373"/>
</g>
<g>
	<defs>
		<rect id="SVGID_59_" width="800" height="800"/>
	</defs>
	<clipPath id="SVGID_60_">
		<use xlink:href="#SVGID_59_"  overflow="visible"/>
	</clipPath>
	<path clip-path="url(#SVGID_60_)" fill="#FF947B" d="M562,373c0,13.807-11.192,25-25,25s-25-11.193-25-25s11.192-25,25-25
		S562,359.193,562,373"/>
</g>
<g>
	<defs>
		<rect id="SVGID_61_" width="800" height="800"/>
	</defs>
	<clipPath id="SVGID_62_">
		<use xlink:href="#SVGID_61_"  overflow="visible"/>
	</clipPath>
	<path clip-path="url(#SVGID_62_)" fill="#FF947B" d="M632,373c0,13.807-11.192,25-25,25s-25-11.193-25-25s11.192-25,25-25
		S632,359.193,632,373"/>
</g>
<g>
	<defs>
		<rect id="SVGID_63_" width="800" height="800"/>
	</defs>
	<clipPath id="SVGID_64_">
		<use xlink:href="#SVGID_63_"  overflow="visible"/>
	</clipPath>
	<polygon clip-path="url(#SVGID_64_)" fill="#FCFCFC" points="549,373.5 530,384 530,363 	"/>
</g>
<g>
	<defs>
		<rect id="SVGID_65_" width="800" height="800"/>
	</defs>
	<clipPath id="SVGID_66_">
		<use xlink:href="#SVGID_65_"  overflow="visible"/>
	</clipPath>
	<path clip-path="url(#SVGID_66_)" fill="#F9F9F9" d="M466.5,369c-1.931,0-3.5,1.57-3.5,3.5s1.569,3.5,3.5,3.5s3.5-1.57,3.5-3.5
		S468.431,369,466.5,369"/>
</g>
<g>
	<defs>
		<rect id="SVGID_67_" width="800" height="800"/>
	</defs>
	<clipPath id="SVGID_68_">
		<use xlink:href="#SVGID_67_"  overflow="visible"/>
	</clipPath>
	<path clip-path="url(#SVGID_68_)" fill="#FFFFFF" d="M477.065,363.082l-12-0.093l0.008-1c0.004-0.552-0.44-1.003-0.992-1.008
		l-5-0.039c-0.551-0.004-1.003,0.44-1.008,0.992l-0.008,1l-2-0.016c-1.656-0.013-3.012,1.32-3.022,2.977l-0.101,13
		c-0.015,1.657,1.318,3.01,2.977,3.023l21,0.163c1.656,0.013,3.01-1.32,3.023-2.977l0.1-13
		C480.055,364.447,478.723,363.094,477.065,363.082 M466.45,378c-3.033-0.023-5.48-2.509-5.457-5.542
		c0.021-3.033,2.508-5.481,5.541-5.458s5.479,2.509,5.458,5.542C471.969,375.575,469.483,378.023,466.45,378"/>
</g>
<g>
	<defs>
		<rect id="SVGID_69_" width="800" height="800"/>
	</defs>
	<clipPath id="SVGID_70_">
		<use xlink:href="#SVGID_69_"  overflow="visible"/>
	</clipPath>
	<path clip-path="url(#SVGID_70_)" fill="#F9F9F9" d="M616,368.921v-1.547c0-5.203-3.785-8.98-9-8.98s-9,3.793-9,9.019v1.508
		c-3.171,1.128-5,4.054-5,7.498c0,4.418,3,8,8,8v-17.006c0-4.158,3.015-6.019,6-6.019s6,1.849,6,5.98v17.045c5,0,8-3.582,8-8
		C621,372.976,619.171,370.05,616,368.921"/>
</g>
<g>
	<defs>
		<rect id="SVGID_71_" width="800" height="800"/>
	</defs>
	<clipPath id="SVGID_72_">
		<use xlink:href="#SVGID_71_"  overflow="visible"/>
	</clipPath>
	<rect x="121" y="150" clip-path="url(#SVGID_72_)" fill="#333333" width="7" height="7"/>
</g>
<g>
	<defs>
		<rect id="SVGID_73_" width="800" height="800"/>
	</defs>
	<clipPath id="SVGID_74_">
		<use xlink:href="#SVGID_73_"  overflow="visible"/>
	</clipPath>
	<rect x="130" y="150" clip-path="url(#SVGID_74_)" fill="#333333" width="7" height="7"/>
</g>
<g>
	<defs>
		<rect id="SVGID_75_" width="800" height="800"/>
	</defs>
	<clipPath id="SVGID_76_">
		<use xlink:href="#SVGID_75_"  overflow="visible"/>
	</clipPath>
	<rect x="121" y="159" clip-path="url(#SVGID_76_)" fill="#333333" width="7" height="7"/>
</g>
<g>
	<defs>
		<rect id="SVGID_77_" width="800" height="800"/>
	</defs>
	<clipPath id="SVGID_78_">
		<use xlink:href="#SVGID_77_"  overflow="visible"/>
	</clipPath>
	<rect x="130" y="159" clip-path="url(#SVGID_78_)" fill="#333333" width="7" height="7"/>
</g>
<g>
	<defs>
		<rect id="SVGID_79_" width="800" height="800"/>
	</defs>
	<clipPath id="SVGID_80_">
		<use xlink:href="#SVGID_79_"  overflow="visible"/>
	</clipPath>
	<rect x="154" y="150" clip-path="url(#SVGID_80_)" fill="#333333" width="17" height="2"/>
</g>
<g>
	<defs>
		<rect id="SVGID_81_" width="800" height="800"/>
	</defs>
	<clipPath id="SVGID_82_">
		<use xlink:href="#SVGID_81_"  overflow="visible"/>
	</clipPath>
	<rect x="154" y="154" clip-path="url(#SVGID_82_)" fill="#333333" width="15" height="2"/>
</g>
<g>
	<defs>
		<rect id="SVGID_83_" width="800" height="800"/>
	</defs>
	<clipPath id="SVGID_84_">
		<use xlink:href="#SVGID_83_"  overflow="visible"/>
	</clipPath>
	<rect x="154" y="158" clip-path="url(#SVGID_84_)" fill="#333333" width="19" height="2"/>
</g>
<g>
	<defs>
		<rect id="SVGID_85_" width="800" height="800"/>
	</defs>
	<clipPath id="SVGID_86_">
		<use xlink:href="#SVGID_85_"  overflow="visible"/>
	</clipPath>
	<rect x="154" y="162" clip-path="url(#SVGID_86_)" fill="#333333" width="13" height="2"/>
</g>
<g>
	<defs>
		<rect id="SVGID_87_" width="800" height="800"/>
	</defs>
	<clipPath id="SVGID_88_">
		<use xlink:href="#SVGID_87_"  overflow="visible"/>
	</clipPath>
	<polygon clip-path="url(#SVGID_88_)" fill="#333333" points="78,157 71,157 71,150 69,150 69,157 62,157 62,159 69,159 69,166 
		71,166 71,159 78,159 	"/>
</g>
<g>
	<defs>
		<rect id="SVGID_89_" width="800" height="800"/>
	</defs>
	<clipPath id="SVGID_90_">
		<use xlink:href="#SVGID_89_"  overflow="visible"/>
	</clipPath>
	<polygon clip-path="url(#SVGID_90_)" fill="#333333" points="47,164 35,164 35,152 39,152 39,150 33,150 33,166 49,166 49,160 
		47,160 	"/>
</g>
<g>
	<defs>
		<rect id="SVGID_91_" width="800" height="800"/>
	</defs>
	<clipPath id="SVGID_92_">
		<use xlink:href="#SVGID_91_"  overflow="visible"/>
	</clipPath>
	<polygon clip-path="url(#SVGID_92_)" fill="#333333" points="42,150 42,152 45.5,152 38,159.5 39.5,161 47,153.5 47,157 49,157 
		49,150 	"/>
</g>
<g>
	<defs>
		<rect id="SVGID_93_" width="800" height="800"/>
	</defs>
	<clipPath id="SVGID_94_">
		<use xlink:href="#SVGID_93_"  overflow="visible"/>
	</clipPath>
	<path clip-path="url(#SVGID_94_)" fill="#333333" d="M51.597,104.174c-0.832,0.369-1.725,0.618-2.663,0.73
		c0.958-0.574,1.693-1.482,2.039-2.565c-0.896,0.531-1.888,0.917-2.944,1.125c-0.846-0.901-2.051-1.464-3.384-1.464
		c-2.56,0-4.636,2.076-4.636,4.636c0,0.364,0.041,0.717,0.12,1.057c-3.853-0.194-7.27-2.039-9.556-4.844
		c-0.399,0.685-0.628,1.481-0.628,2.33c0,1.609,0.819,3.028,2.062,3.859c-0.759-0.024-1.474-0.232-2.099-0.579
		c-0.001,0.019-0.001,0.038-0.001,0.058c0,2.246,1.599,4.12,3.719,4.546c-0.389,0.106-0.798,0.162-1.221,0.162
		c-0.299,0-0.589-0.029-0.872-0.083c0.59,1.842,2.302,3.182,4.33,3.22c-1.586,1.243-3.585,1.984-5.757,1.984
		c-0.374,0-0.743-0.022-1.106-0.065c2.051,1.316,4.488,2.084,7.107,2.084c8.527,0,13.19-7.065,13.19-13.191
		c0-0.201-0.004-0.401-0.013-0.6C50.189,105.92,50.975,105.104,51.597,104.174"/>
</g>
<g>
	<defs>
		<rect id="SVGID_95_" width="800" height="800"/>
	</defs>
	<clipPath id="SVGID_96_">
		<use xlink:href="#SVGID_95_"  overflow="visible"/>
	</clipPath>
	<path clip-path="url(#SVGID_96_)" fill="#333333" d="M114.651,112c0,3.674-2.978,6.651-6.651,6.651
		c-3.674,0-6.651-2.977-6.651-6.651c0-0.438,0.043-0.865,0.124-1.279H97v8.841c0,1.899,1.538,3.438,3.437,3.438h15.125
		c1.898,0,3.438-1.539,3.438-3.438v-8.841h-4.473C114.608,111.135,114.651,111.562,114.651,112 M115.562,101h-15.125
		c-1.899,0-3.437,1.539-3.437,3.438v3.725h5.568c1.205-1.702,3.188-2.814,5.432-2.814c2.243,0,4.226,1.112,5.431,2.814H119v-3.725
		C119,102.539,117.46,101,115.562,101 M117.243,105.246c0,0.338-0.276,0.614-0.614,0.614h-1.842c-0.337,0-0.614-0.276-0.614-0.614
		v-1.841c0-0.338,0.277-0.614,0.614-0.614h1.842c0.338,0,0.614,0.276,0.614,0.614V105.246z M112.093,112
		c0-2.261-1.833-4.093-4.093-4.093c-2.261,0-4.093,1.832-4.093,4.093s1.832,4.093,4.093,4.093
		C110.26,116.093,112.093,114.261,112.093,112"/>
</g>
<g>
	<defs>
		<rect id="SVGID_97_" width="800" height="800"/>
	</defs>
	<clipPath id="SVGID_98_">
		<use xlink:href="#SVGID_97_"  overflow="visible"/>
	</clipPath>
	<path clip-path="url(#SVGID_98_)" fill="#333333" d="M74.079,122v-9.579h3.215l0.482-3.733h-3.697v-2.384
		c0-1.081,0.3-1.817,1.85-1.817l1.977-0.001v-3.339c-0.342-0.045-1.515-0.147-2.881-0.147c-2.85,0-4.801,1.74-4.801,4.935v2.753H67
		v3.733h3.224V122H74.079z"/>
</g>
<g>
	<defs>
		<rect id="SVGID_99_" width="800" height="800"/>
	</defs>
	<clipPath id="SVGID_100_">
		<use xlink:href="#SVGID_99_"  overflow="visible"/>
	</clipPath>
	<path clip-path="url(#SVGID_100_)" fill="#282928" d="M161.744,106.099c0,0-0.264-1.862-1.074-2.681
		c-1.027-1.076-2.178-1.082-2.706-1.145C154.183,102,148.513,102,148.513,102h-0.012c0,0-5.67,0-9.451,0.273
		c-0.528,0.063-1.679,0.069-2.706,1.145c-0.81,0.819-1.074,2.681-1.074,2.681s-0.27,2.186-0.27,4.372v2.049
		c0,2.187,0.27,4.373,0.27,4.373s0.264,1.861,1.074,2.681c1.027,1.076,2.377,1.042,2.978,1.155c2.161,0.207,9.185,0.271,9.185,0.271
		s5.676-0.009,9.457-0.282c0.528-0.063,1.679-0.068,2.706-1.144c0.81-0.82,1.074-2.681,1.074-2.681s0.27-2.186,0.27-4.373v-2.049
		C162.014,108.285,161.744,106.099,161.744,106.099 M145.718,115.004l-0.001-7.59l7.299,3.808L145.718,115.004z"/>
</g>
<g>
	<defs>
		<rect id="SVGID_101_" width="800" height="800"/>
	</defs>
	<clipPath id="SVGID_102_">
		<use xlink:href="#SVGID_101_"  overflow="visible"/>
	</clipPath>
	<path clip-path="url(#SVGID_102_)" fill="#343434" d="M197.371,101h-18.747c-0.896,0-1.624,0.71-1.624,1.585v18.827
		c0,0.877,0.728,1.588,1.624,1.588h18.747c0.897,0,1.629-0.711,1.629-1.588v-18.827C199,101.71,198.268,101,197.371,101
		 M183.525,119.747h-3.264v-10.499h3.264V119.747z M181.893,107.813c-1.046,0-1.891-0.848-1.891-1.893
		c0-1.043,0.845-1.891,1.891-1.891c1.043,0,1.891,0.848,1.891,1.891C183.784,106.965,182.936,107.813,181.893,107.813
		 M195.746,119.747h-3.259v-5.105c0-1.219-0.024-2.785-1.696-2.785c-1.698,0-1.957,1.327-1.957,2.696v5.194h-3.262v-10.499h3.13
		v1.434h0.044c0.436-0.825,1.501-1.695,3.088-1.695c3.302,0,3.912,2.173,3.912,5.001V119.747L195.746,119.747z"/>
</g>
<g>
	<defs>
		<rect id="SVGID_103_" width="800" height="800"/>
	</defs>
	<clipPath id="SVGID_104_">
		<use xlink:href="#SVGID_103_"  overflow="visible"/>
	</clipPath>
	<path clip-path="url(#SVGID_104_)" fill="#333333" d="M243,162.98c0-3.314-2.686-5.99-6-5.99s-6,2.696-6,6.01v3h12V162.98z"/>
</g>
<g>
	<defs>
		<rect id="SVGID_105_" width="800" height="800"/>
	</defs>
	<clipPath id="SVGID_106_">
		<use xlink:href="#SVGID_105_"  overflow="visible"/>
	</clipPath>
	<path clip-path="url(#SVGID_106_)" fill="#333333" d="M241,152c0,2.209-1.791,4-4,4s-4-1.791-4-4s1.791-4,4-4S241,149.791,241,152"
		/>
</g>
<g>
	<defs>
		<rect id="SVGID_107_" width="800" height="800"/>
	</defs>
	<clipPath id="SVGID_108_">
		<use xlink:href="#SVGID_107_"  overflow="visible"/>
	</clipPath>
	<path clip-path="url(#SVGID_108_)" fill="#333333" d="M269,161c-2.761,0-5-2.239-5-5s2.239-5,5-5c2.762,0,5,2.239,5,5
		S271.762,161,269,161 M260.319,163.633c-0.425,0.425-0.425,1.114,0,1.539c0.213,0.213,0.491,0.319,0.77,0.319
		c0.278,0,0.556-0.106,0.769-0.319l3.335-3.303c1.096,0.713,2.402,1.131,3.807,1.131c3.866,0,7-3.134,7-7s-3.134-7-7-7s-7,3.134-7,7
		c0,1.662,0.582,3.186,1.549,4.387L260.319,163.633z"/>
</g>
<g>
	<defs>
		<rect id="SVGID_109_" width="800" height="800"/>
	</defs>
	<clipPath id="SVGID_110_">
		<use xlink:href="#SVGID_109_"  overflow="visible"/>
	</clipPath>
	<path clip-path="url(#SVGID_110_)" fill="#333333" d="M209,154c1.657,0,3-1.343,3-3s-1.343-3-3-3s-3,1.343-3,3S207.343,154,209,154
		"/>
</g>
<g>
	<defs>
		<rect id="SVGID_111_" width="800" height="800"/>
	</defs>
	<clipPath id="SVGID_112_">
		<use xlink:href="#SVGID_111_"  overflow="visible"/>
	</clipPath>
	<path clip-path="url(#SVGID_112_)" fill="#333333" d="M209,155c-2.209,0-4,1.791-4,4v7h8v-7C213,156.791,211.209,155,209,155"/>
</g>
<g>
	<defs>
		<rect id="SVGID_113_" width="800" height="800"/>
	</defs>
	<clipPath id="SVGID_114_">
		<use xlink:href="#SVGID_113_"  overflow="visible"/>
	</clipPath>
	<path clip-path="url(#SVGID_114_)" fill="#333333" d="M202,148c-1.657,0-3,1.343-3,3s1.343,3,3,3s3-1.343,3-3S203.657,148,202,148"
		/>
</g>
<g>
	<defs>
		<rect id="SVGID_115_" width="800" height="800"/>
	</defs>
	<clipPath id="SVGID_116_">
		<use xlink:href="#SVGID_115_"  overflow="visible"/>
	</clipPath>
	<path clip-path="url(#SVGID_116_)" fill="#333333" d="M195,148c-1.657,0-3,1.343-3,3s1.343,3,3,3s3-1.343,3-3S196.657,148,195,148"
		/>
</g>
<g>
	<defs>
		<rect id="SVGID_117_" width="800" height="800"/>
	</defs>
	<clipPath id="SVGID_118_">
		<use xlink:href="#SVGID_117_"  overflow="visible"/>
	</clipPath>
	<path clip-path="url(#SVGID_118_)" fill="#333333" d="M202,155c-2.209,0-4,1.791-4,4v7h5v-7.844c0-1.002,0.474-1.788,1-2.156
		C203.526,155.237,202.603,155,202,155"/>
</g>
<g>
	<defs>
		<rect id="SVGID_119_" width="800" height="800"/>
	</defs>
	<clipPath id="SVGID_120_">
		<use xlink:href="#SVGID_119_"  overflow="visible"/>
	</clipPath>
	<path clip-path="url(#SVGID_120_)" fill="#333333" d="M195,155c-2.209,0-4,1.791-4,4v7h5v-7.844c0-1.002,0.474-1.788,1-2.156
		C196.526,155.237,195.603,155,195,155"/>
</g>
<g>
	<defs>
		<rect id="SVGID_121_" width="800" height="800"/>
	</defs>
	<clipPath id="SVGID_122_">
		<use xlink:href="#SVGID_121_"  overflow="visible"/>
	</clipPath>
	<polygon clip-path="url(#SVGID_122_)" fill="#333333" points="299,148 301.125,154.612 308,154.612 302.438,158.72 
		304.562,165.342 299,161.261 293.438,165.35 295.562,158.718 290,154.612 296.875,154.612 	"/>
</g>
<g>
	<defs>
		<rect id="SVGID_123_" width="800" height="800"/>
	</defs>
	<clipPath id="SVGID_124_">
		<use xlink:href="#SVGID_123_"  overflow="visible"/>
	</clipPath>
	<path clip-path="url(#SVGID_124_)" fill="#333333" d="M328.493,164.523c-0.262,0-0.518-0.103-0.704-0.29L322,158.491l1.408-1.42
		l4.893,4.853L336.852,148l1.704,1.046l-9.211,15c-0.16,0.261-0.43,0.434-0.731,0.47
		C328.572,164.521,328.533,164.523,328.493,164.523"/>
</g>
<g>
	<defs>
		<rect id="SVGID_125_" width="800" height="800"/>
	</defs>
	<clipPath id="SVGID_126_">
		<use xlink:href="#SVGID_125_"  overflow="visible"/>
	</clipPath>
	<polygon clip-path="url(#SVGID_126_)" fill="#333333" points="510.26,110.453 504,105.156 504,117.495 	"/>
</g>
<g>
	<defs>
		<rect id="SVGID_127_" width="800" height="800"/>
	</defs>
	<clipPath id="SVGID_128_">
		<use xlink:href="#SVGID_127_"  overflow="visible"/>
	</clipPath>
	<polygon clip-path="url(#SVGID_128_)" fill="#333333" points="526.271,104 505.729,104 516,112.69 	"/>
</g>
<g>
	<defs>
		<rect id="SVGID_129_" width="800" height="800"/>
	</defs>
	<clipPath id="SVGID_130_">
		<use xlink:href="#SVGID_129_"  overflow="visible"/>
	</clipPath>
	<polygon clip-path="url(#SVGID_130_)" fill="#333333" points="526.324,118.255 519.875,111 515.662,114.565 511.449,111 
		505,118.255 	"/>
</g>
<g>
	<defs>
		<rect id="SVGID_131_" width="800" height="800"/>
	</defs>
	<clipPath id="SVGID_132_">
		<use xlink:href="#SVGID_131_"  overflow="visible"/>
	</clipPath>
	<polygon clip-path="url(#SVGID_132_)" fill="#333333" points="528,105.156 521.74,110.453 528,117.495 	"/>
</g>
<g>
	<defs>
		<rect id="SVGID_133_" width="800" height="800"/>
	</defs>
	<clipPath id="SVGID_134_">
		<use xlink:href="#SVGID_133_"  overflow="visible"/>
	</clipPath>
	<path clip-path="url(#SVGID_134_)" fill="#343434" d="M239.388,106.8c-1.257,7.216-8.282,13.325-10.394,14.721
		c-2.114,1.395-4.041-0.559-4.74-2.037c-0.801-1.685-3.199-10.822-3.827-11.578c-0.628-0.757-2.513,0.756-2.513,0.756l-0.914-1.22
		c0,0,3.827-4.656,6.739-5.238c3.088-0.617,3.083,4.829,3.826,7.854c0.718,2.925,1.201,4.599,1.828,4.599
		c0.628,0,1.827-1.631,3.14-4.132c1.316-2.504-0.056-4.715-2.626-3.142C230.935,101.099,240.645,99.587,239.388,106.8"/>
</g>
<g>
	<defs>
		<rect id="SVGID_135_" width="800" height="800"/>
	</defs>
	<clipPath id="SVGID_136_">
		<use xlink:href="#SVGID_135_"  overflow="visible"/>
	</clipPath>
	<path clip-path="url(#SVGID_136_)" fill="#343434" d="M258.298,119.177l0.633-2.705l-0.633-2.797
		c-0.017-0.083-0.176-0.146-0.37-0.146c-0.196,0-0.356,0.063-0.371,0.147L257,116.472l0.557,2.705
		c0.015,0.084,0.175,0.147,0.371,0.147C258.122,119.324,258.281,119.261,258.298,119.177 M262.258,120.679l0.537-4.181l-0.537-6.467
		c-0.015-0.165-0.216-0.294-0.46-0.294c-0.245,0-0.447,0.129-0.459,0.294l-0.476,6.467l0.476,4.181
		c0.012,0.163,0.214,0.292,0.459,0.292C262.042,120.971,262.243,120.844,262.258,120.679 M266.21,120.609l0.449-4.109l-0.449-8.611
		c-0.012-0.202-0.25-0.361-0.542-0.361c-0.294,0-0.533,0.159-0.543,0.361l-0.398,8.611l0.398,4.111
		c0.01,0.2,0.249,0.358,0.543,0.358C265.96,120.97,266.198,120.812,266.21,120.609 M270.155,120.548l0.367-4.048l-0.367-8.673
		c-0.009-0.24-0.281-0.428-0.618-0.428c-0.34,0-0.611,0.188-0.62,0.428l-0.327,8.673l0.329,4.047
		c0.007,0.238,0.278,0.426,0.618,0.426C269.874,120.974,270.146,120.789,270.155,120.548 M274.095,120.498l0.291-3.995l-0.291-9.945
		c-0.006-0.273-0.316-0.495-0.69-0.495c-0.375,0-0.685,0.222-0.691,0.495l-0.26,9.942c0,0.006,0.26,3.998,0.26,3.998
		c0.006,0.27,0.316,0.492,0.691,0.492C273.779,120.989,274.089,120.771,274.095,120.498 M276.855,120.993
		c0.013,0.001,13.713,0.008,13.802,0.008c2.751,0,4.979-2.156,4.979-4.816s-2.228-4.816-4.979-4.816
		c-0.682,0-1.333,0.135-1.926,0.375c-0.396-4.339-4.159-7.743-8.749-7.743c-1.123,0-2.218,0.213-3.185,0.575
		c-0.376,0.141-0.476,0.285-0.479,0.566v15.282C276.322,120.718,276.558,120.963,276.855,120.993"/>
</g>
<g>
	<defs>
		<rect id="SVGID_137_" width="800" height="800"/>
	</defs>
	<clipPath id="SVGID_138_">
		<use xlink:href="#SVGID_137_"  overflow="visible"/>
	</clipPath>
	<path clip-path="url(#SVGID_138_)" fill="#343434" d="M333.574,111.592c-0.367-0.112-0.619-0.189-0.426-0.679
		c0.415-1.066,0.459-1.985,0.008-2.641c-0.848-1.23-3.161-1.164-5.813-0.033c0-0.001-0.833,0.371-0.621-0.302
		c0.409-1.336,0.348-2.453-0.288-3.099c-1.438-1.466-5.266,0.055-8.549,3.395c-2.458,2.502-3.885,5.155-3.885,7.448
		c0,4.386,5.526,7.32,10.932,7.32c7.086,0,11.803-4.459,11.803-7.786C336.733,113.204,335.069,112.062,333.574,111.592
		 M324.946,121.034c-4.313,0.427-8.036-1.532-8.317-4.381c-0.28-2.847,2.99-5.503,7.304-5.932c4.314-0.429,8.038,1.532,8.317,4.379
		C332.53,117.949,329.261,120.604,324.946,121.034 M340.611,108.02c-0.002-4.429-3.595-8.019-8.023-8.019
		c-0.518,0-0.936,0.419-0.936,0.936s0.418,0.936,0.936,0.936c3.397,0,6.151,2.754,6.151,6.151c0,0.517,0.419,0.936,0.936,0.936
		c0.519,0,0.938-0.419,0.938-0.936L340.611,108.02L340.611,108.02z M336.891,107.883c-0.427-2.089-2.072-3.735-4.162-4.163
		c-0.506-0.104-1.001,0.222-1.104,0.728c-0.104,0.507,0.222,1.001,0.727,1.106c1.359,0.278,2.431,1.347,2.707,2.705
		c0.104,0.507,0.601,0.832,1.105,0.729C336.669,108.883,336.995,108.389,336.891,107.883 M322.734,113.51
		c-1.738,0.349-2.91,1.807-2.619,3.255c0.29,1.448,1.935,2.338,3.673,1.989c1.737-0.349,2.91-1.806,2.619-3.255
		C326.116,114.052,324.471,113.161,322.734,113.51"/>
</g>
<g>
	<defs>
		<rect id="SVGID_139_" width="800" height="800"/>
	</defs>
	<clipPath id="SVGID_140_">
		<use xlink:href="#SVGID_139_"  overflow="visible"/>
	</clipPath>
	<path clip-path="url(#SVGID_140_)" fill="#343434" d="M357.001,112c0,4.354,2.53,8.117,6.2,9.899l-5.248-14.376
		C357.343,108.891,357.001,110.405,357.001,112"/>
</g>
<g>
	<defs>
		<rect id="SVGID_141_" width="800" height="800"/>
	</defs>
	<clipPath id="SVGID_142_">
		<use xlink:href="#SVGID_141_"  overflow="visible"/>
	</clipPath>
	<path clip-path="url(#SVGID_142_)" fill="#343434" d="M374.616,111.445c0-1.36-0.489-2.301-0.907-3.034
		c-0.557-0.906-1.08-1.673-1.08-2.58c0-1.01,0.766-1.952,1.847-1.952c0.051,0,0.097,0.006,0.144,0.009
		c-1.957-1.793-4.564-2.888-7.428-2.888c-3.845,0-7.225,1.972-9.19,4.958c0.258,0.008,0.501,0.013,0.708,0.013
		c1.15,0,2.931-0.14,2.931-0.14c0.595-0.034,0.663,0.837,0.071,0.907c0,0-0.596,0.07-1.259,0.105l4.005,11.914l2.408-7.219
		l-1.714-4.695c-0.594-0.035-1.153-0.105-1.153-0.105c-0.593-0.035-0.524-0.941,0.069-0.907c0,0,1.814,0.14,2.896,0.14
		c1.15,0,2.932-0.14,2.932-0.14c0.595-0.034,0.663,0.837,0.07,0.907c0,0-0.596,0.07-1.259,0.105l3.976,11.824l1.099-3.666
		C374.254,113.479,374.616,112.386,374.616,111.445"/>
</g>
<g>
	<defs>
		<rect id="SVGID_143_" width="800" height="800"/>
	</defs>
	<clipPath id="SVGID_144_">
		<use xlink:href="#SVGID_143_"  overflow="visible"/>
	</clipPath>
	<path clip-path="url(#SVGID_144_)" fill="#343434" d="M368.193,112.962l-3.303,9.59c0.986,0.29,2.028,0.448,3.108,0.448
		c1.281,0,2.509-0.221,3.653-0.623c-0.03-0.048-0.059-0.098-0.079-0.152L368.193,112.962z"/>
</g>
<g>
	<defs>
		<rect id="SVGID_145_" width="800" height="800"/>
	</defs>
	<clipPath id="SVGID_146_">
		<use xlink:href="#SVGID_145_"  overflow="visible"/>
	</clipPath>
	<path clip-path="url(#SVGID_146_)" fill="#343434" d="M377.653,106.723c0.047,0.35,0.072,0.726,0.072,1.131
		c0,1.116-0.209,2.371-0.837,3.94l-3.357,9.714c3.27-1.907,5.469-5.45,5.469-9.508C379,110.088,378.512,108.29,377.653,106.723"/>
</g>
<g>
	<defs>
		<rect id="SVGID_147_" width="800" height="800"/>
	</defs>
	<clipPath id="SVGID_148_">
		<use xlink:href="#SVGID_147_"  overflow="visible"/>
	</clipPath>
	<path clip-path="url(#SVGID_148_)" fill="#343434" d="M406,101c-6.075,0-11,4.925-11,11c0,6.076,4.925,11,11,11s11-4.924,11-11
		C417,105.925,412.075,101,406,101 M411.045,116.866c-0.198,0.324-0.62,0.426-0.943,0.228c-2.583-1.579-5.834-1.935-9.661-1.06
		c-0.369,0.084-0.737-0.147-0.821-0.516s0.146-0.737,0.516-0.821c4.19-0.958,7.784-0.545,10.685,1.226
		C411.141,116.121,411.243,116.543,411.045,116.866 M412.391,113.871c-0.249,0.404-0.774,0.53-1.18,0.282
		c-2.956-1.817-7.463-2.343-10.961-1.282c-0.453,0.138-0.932-0.118-1.07-0.571c-0.137-0.454,0.119-0.932,0.572-1.07
		c3.995-1.212,8.961-0.625,12.356,1.462C412.512,112.94,412.639,113.468,412.391,113.871 M412.507,110.752
		c-3.546-2.106-9.396-2.299-12.779-1.272c-0.544,0.165-1.117-0.142-1.281-0.686c-0.165-0.543,0.141-1.118,0.685-1.283
		c3.886-1.179,10.345-0.952,14.427,1.471c0.489,0.291,0.65,0.922,0.36,1.41C413.627,110.881,412.995,111.042,412.507,110.752"/>
</g>
<g>
	<defs>
		<rect id="SVGID_149_" width="800" height="800"/>
	</defs>
	<clipPath id="SVGID_150_">
		<use xlink:href="#SVGID_149_"  overflow="visible"/>
	</clipPath>
	<path clip-path="url(#SVGID_150_)" fill="#343434" d="M453.37,101h-18.747c-0.896,0-1.623,0.711-1.623,1.585v18.828
		c0,0.876,0.728,1.587,1.623,1.587h18.747c0.896,0,1.63-0.711,1.63-1.587v-18.828C455,101.711,454.268,101,453.37,101"/>
</g>
<g>
	<defs>
		<rect id="SVGID_151_" width="800" height="800"/>
	</defs>
	<clipPath id="SVGID_152_">
		<use xlink:href="#SVGID_151_"  overflow="visible"/>
	</clipPath>
	<path clip-path="url(#SVGID_152_)" fill="#EBEBEB" d="M443.029,104.756c0.131,0.082,0.277,0.201,0.441,0.358
		c0.157,0.164,0.312,0.366,0.464,0.604c0.146,0.226,0.271,0.492,0.386,0.8c0.092,0.307,0.138,0.666,0.138,1.076
		c-0.013,0.752-0.178,1.353-0.496,1.804c-0.155,0.219-0.32,0.421-0.495,0.605c-0.191,0.185-0.396,0.373-0.617,0.564
		c-0.124,0.13-0.238,0.277-0.346,0.441c-0.125,0.171-0.187,0.369-0.187,0.595c0,0.218,0.062,0.399,0.188,0.543
		c0.109,0.137,0.215,0.256,0.317,0.359l0.71,0.584c0.439,0.362,0.828,0.762,1.16,1.199c0.312,0.445,0.477,1.026,0.487,1.743
		c0,1.018-0.445,1.921-1.344,2.707c-0.928,0.812-2.268,1.233-4.018,1.261c-1.468-0.014-2.562-0.328-3.283-0.942
		c-0.729-0.573-1.094-1.258-1.094-2.057c0-0.389,0.117-0.822,0.354-1.299c0.229-0.478,0.646-0.897,1.251-1.259
		c0.677-0.388,1.39-0.648,2.135-0.777c0.739-0.11,1.354-0.171,1.842-0.184c-0.151-0.2-0.285-0.413-0.403-0.64
		c-0.138-0.219-0.207-0.484-0.207-0.793c0-0.186,0.026-0.341,0.079-0.464c0.046-0.131,0.088-0.251,0.128-0.361
		c-0.237,0.028-0.462,0.041-0.672,0.041c-1.114-0.013-1.963-0.365-2.547-1.056c-0.611-0.642-0.917-1.39-0.917-2.244
		c0-1.032,0.433-1.968,1.299-2.809c0.595-0.492,1.213-0.813,1.854-0.963c0.637-0.13,1.229-0.195,1.785-0.195h4.186l-1.292,0.758
		L443.029,104.756L443.029,104.756z M443.837,116.854c0-0.533-0.173-0.998-0.519-1.395c-0.367-0.376-0.94-0.837-1.721-1.384
		c-0.134-0.014-0.29-0.02-0.471-0.02c-0.104-0.014-0.38,0-0.818,0.041c-0.434,0.061-0.876,0.16-1.327,0.297
		c-0.107,0.041-0.259,0.102-0.45,0.185c-0.193,0.088-0.392,0.215-0.589,0.379c-0.194,0.171-0.357,0.383-0.49,0.636
		c-0.153,0.266-0.229,0.587-0.229,0.963c0,0.739,0.333,1.347,0.999,1.826c0.635,0.478,1.499,0.724,2.6,0.738
		c0.984-0.014,1.737-0.233,2.259-0.656C443.584,118.046,443.837,117.51,443.837,116.854 M440.92,110.693
		c0.552-0.02,1.011-0.219,1.377-0.596c0.178-0.267,0.291-0.541,0.342-0.822c0.03-0.28,0.046-0.516,0.046-0.708
		c0-0.829-0.211-1.664-0.634-2.507c-0.195-0.404-0.457-0.733-0.778-0.986c-0.33-0.24-0.709-0.366-1.141-0.38
		c-0.564,0.014-1.037,0.243-1.413,0.688c-0.315,0.466-0.47,0.987-0.455,1.562c0,0.76,0.223,1.551,0.664,2.373
		c0.215,0.383,0.491,0.708,0.829,0.975C440.097,110.561,440.484,110.693,440.92,110.693"/>
</g>
<g>
	<defs>
		<rect id="SVGID_153_" width="800" height="800"/>
	</defs>
	<clipPath id="SVGID_154_">
		<use xlink:href="#SVGID_153_"  overflow="visible"/>
	</clipPath>
	<polygon clip-path="url(#SVGID_154_)" fill="#EBEBEB" points="453,111 450,111 450,108 449,108 449,111 446,111 446,112 449,112 
		449,115 450,115 450,112 453,112 	"/>
</g>
<g>
	<defs>
		<rect id="SVGID_155_" width="800" height="800"/>
	</defs>
	<clipPath id="SVGID_156_">
		<use xlink:href="#SVGID_155_"  overflow="visible"/>
	</clipPath>
	<path clip-path="url(#SVGID_156_)" fill="#343434" d="M476.815,108.171c-0.204,0.359-0.521,2.635-0.521,3.928
		s0.315,3.536,0.521,3.895c0.202,0.36,0.44,0.263,0.689,0.164c2.052-0.733,5.261-2.695,6.636-3.736
		c0.177-0.131,0.242-0.251,0.242-0.323c0-0.072-0.065-0.216-0.242-0.348c-1.375-1.04-4.584-3.027-6.636-3.76
		C477.258,107.892,477.02,107.812,476.815,108.171"/>
</g>
<g>
	<defs>
		<rect id="SVGID_157_" width="800" height="800"/>
	</defs>
	<clipPath id="SVGID_158_">
		<use xlink:href="#SVGID_157_"  overflow="visible"/>
	</clipPath>
	<path clip-path="url(#SVGID_158_)" fill="#343434" d="M479.416,101c-6.305,0-11.416,4.925-11.416,11s5.111,11,11.416,11
		s11.416-4.925,11.416-11S485.721,101,479.416,101 M479.416,118.725c-3.854,0-6.979-3.011-6.979-6.725s3.125-6.724,6.979-6.724
		c3.854,0,6.979,3.01,6.979,6.724S483.27,118.725,479.416,118.725"/>
</g>
<g>
	<defs>
		<rect id="SVGID_159_" width="800" height="800"/>
	</defs>
	<clipPath id="SVGID_160_">
		<use xlink:href="#SVGID_159_"  overflow="visible"/>
	</clipPath>
	<polygon clip-path="url(#SVGID_160_)" fill="#333333" points="103.728,162.314 98.778,157.364 103.728,152.414 102.314,151 
		97.364,155.95 92.414,151 91,152.414 95.95,157.364 91,162.314 92.414,163.728 97.364,158.778 102.314,163.728 	"/>
	<polygon clip-path="url(#SVGID_160_)" fill="#FCFCFC" points="361.728,162.314 356.778,157.364 361.728,152.414 360.314,151 
		355.364,155.95 350.414,151 349,152.414 353.95,157.364 349,162.314 350.414,163.728 355.364,158.778 360.314,163.728 	"/>
</g>
<g>
	<defs>
		<rect id="SVGID_161_" width="800" height="800"/>
	</defs>
	<clipPath id="SVGID_162_">
		<use xlink:href="#SVGID_161_"  overflow="visible"/>
	</clipPath>
	<polygon clip-path="url(#SVGID_162_)" fill="#333333" points="45.314,201.222 39.364,207.172 39.364,195 37.364,195 
		37.364,207.172 31.415,201.222 30,202.636 38.364,211 46.728,202.636 	"/>
	<polygon clip-path="url(#SVGID_162_)" fill="#999999" points="193.314,201.222 187.364,207.172 187.364,195 185.364,195 
		185.364,207.172 179.415,201.222 178,202.636 186.364,211 194.728,202.636 	"/>
</g>
<g>
	<defs>
		<rect id="SVGID_163_" width="800" height="800"/>
	</defs>
	<clipPath id="SVGID_164_">
		<use xlink:href="#SVGID_163_"  overflow="visible"/>
	</clipPath>
	<polygon clip-path="url(#SVGID_164_)" fill="#FFFFFF" points="165.314,201.222 159.364,207.172 159.364,195 157.364,195 
		157.364,207.172 151.415,201.222 150,202.636 158.364,211 166.728,202.636 	"/>
</g>
<g>
	<defs>
		<rect id="SVGID_165_" width="800" height="800"/>
	</defs>
	<clipPath id="SVGID_166_">
		<use xlink:href="#SVGID_165_"  overflow="visible"/>
	</clipPath>
	<polygon clip-path="url(#SVGID_166_)" fill="#333333" points="61.414,204.778 67.364,198.828 67.364,211 69.364,211 
		69.364,198.828 75.313,204.778 76.728,203.364 68.364,195 60,203.364 	"/>
</g>
<g>
	<defs>
		<rect id="SVGID_167_" width="800" height="800"/>
	</defs>
	<clipPath id="SVGID_168_">
		<use xlink:href="#SVGID_167_"  overflow="visible"/>
	</clipPath>
	<polygon clip-path="url(#SVGID_168_)" fill="#333333" points="100.778,209.314 94.828,203.364 107,203.364 107,201.364 
		94.828,201.364 100.778,195.415 99.364,194 91,202.364 99.364,210.728 	"/>
</g>
<g>
	<defs>
		<rect id="SVGID_169_" width="800" height="800"/>
	</defs>
	<clipPath id="SVGID_170_">
		<use xlink:href="#SVGID_169_"  overflow="visible"/>
	</clipPath>
	<polygon clip-path="url(#SVGID_170_)" fill="#333333" points="127.222,195.414 133.172,201.364 121,201.364 121,203.364 
		133.172,203.364 127.222,209.313 128.636,210.728 137,202.364 128.636,194 	"/>
	<polygon clip-path="url(#SVGID_170_)" fill="#FFFFFF" points="299.222,195.414 305.172,201.364 293,201.364 293,203.364 
		305.172,203.364 299.222,209.313 300.636,210.728 309,202.364 300.636,194 	"/>
	<polygon clip-path="url(#SVGID_170_)" fill="#4DBFA3" points="215.222,195.414 221.172,201.364 209,201.364 209,203.364 
		221.172,203.364 215.222,209.313 216.636,210.728 225,202.364 216.636,194 	"/>
	<polygon clip-path="url(#SVGID_170_)" fill="#EECB3B" points="247.222,195.414 253.172,201.364 241,201.364 241,203.364 
		253.172,203.364 247.222,209.313 248.636,210.728 257,202.364 248.636,194 	"/>
	<polygon clip-path="url(#SVGID_170_)" fill="#FF947B" points="273.222,195.414 279.172,201.364 267,201.364 267,203.364 
		279.172,203.364 273.222,209.313 274.636,210.728 283,202.364 274.636,194 	"/>
</g>
<g>
	<defs>
		<rect id="SVGID_171_" width="800" height="800"/>
	</defs>
	<clipPath id="SVGID_172_">
		<use xlink:href="#SVGID_171_"  overflow="visible"/>
	</clipPath>
	<polygon clip-path="url(#SVGID_172_)" fill="#333333" points="49.728,243.414 48.314,242 39.364,250.95 30.414,242 29,243.414 
		39.364,253.778 	"/>
</g>
<g>
	<defs>
		<rect id="SVGID_173_" width="800" height="800"/>
	</defs>
	<clipPath id="SVGID_174_">
		<use xlink:href="#SVGID_173_"  overflow="visible"/>
	</clipPath>
	<polygon clip-path="url(#SVGID_174_)" fill="#333333" points="59,252.364 60.414,253.778 69.364,244.828 78.314,253.778 
		79.728,252.364 69.364,242 	"/>
</g>
<g>
	<defs>
		<rect id="SVGID_175_" width="800" height="800"/>
	</defs>
	<clipPath id="SVGID_176_">
		<use xlink:href="#SVGID_175_"  overflow="visible"/>
	</clipPath>
	<polygon clip-path="url(#SVGID_176_)" fill="#4DBFA3" points="49.728,278.414 48.314,277 39.364,285.95 30.414,277 29,278.414 
		39.364,288.778 	"/>
</g>
<g>
	<defs>
		<rect id="SVGID_177_" width="800" height="800"/>
	</defs>
	<clipPath id="SVGID_178_">
		<use xlink:href="#SVGID_177_"  overflow="visible"/>
	</clipPath>
	<polygon clip-path="url(#SVGID_178_)" fill="#4DBFA3" points="60,287.364 61.414,288.778 70.364,279.828 79.314,288.778 
		80.728,287.364 70.364,277 	"/>
</g>
<g>
	<defs>
		<rect id="SVGID_179_" width="800" height="800"/>
	</defs>
	<clipPath id="SVGID_180_">
		<use xlink:href="#SVGID_179_"  overflow="visible"/>
	</clipPath>
	<polygon clip-path="url(#SVGID_180_)" fill="#EECB3B" points="114.728,278.414 113.314,277 104.364,285.95 95.414,277 94,278.414 
		104.364,288.778 	"/>
</g>
<g>
	<defs>
		<rect id="SVGID_181_" width="800" height="800"/>
	</defs>
	<clipPath id="SVGID_182_">
		<use xlink:href="#SVGID_181_"  overflow="visible"/>
	</clipPath>
	<polygon clip-path="url(#SVGID_182_)" fill="#EECB3B" points="124,287.364 125.414,288.778 134.364,279.828 143.314,288.778 
		144.728,287.364 134.364,277 	"/>
</g>
<g>
	<defs>
		<rect id="SVGID_183_" width="800" height="800"/>
	</defs>
	<clipPath id="SVGID_184_">
		<use xlink:href="#SVGID_183_"  overflow="visible"/>
	</clipPath>
	<polygon clip-path="url(#SVGID_184_)" fill="#FF947B" points="172.728,278.414 171.314,277 162.364,285.95 153.414,277 
		152,278.414 162.364,288.778 	"/>
</g>
<g>
	<defs>
		<rect id="SVGID_185_" width="800" height="800"/>
	</defs>
	<clipPath id="SVGID_186_">
		<use xlink:href="#SVGID_185_"  overflow="visible"/>
	</clipPath>
	<polygon clip-path="url(#SVGID_186_)" fill="#FF947B" points="182,287.364 183.414,288.778 192.364,279.828 201.314,288.778 
		202.728,287.364 192.364,277 	"/>
</g>
<g>
	<defs>
		<rect id="SVGID_187_" width="800" height="800"/>
	</defs>
	<clipPath id="SVGID_188_">
		<use xlink:href="#SVGID_187_"  overflow="visible"/>
	</clipPath>
	<polygon clip-path="url(#SVGID_188_)" fill="#FFFFFF" points="50.728,313.414 49.314,312 40.364,320.95 31.414,312 30,313.414 
		40.364,323.778 	"/>
</g>
<g>
	<defs>
		<rect id="SVGID_189_" width="800" height="800"/>
	</defs>
	<clipPath id="SVGID_190_">
		<use xlink:href="#SVGID_189_"  overflow="visible"/>
	</clipPath>
	<polygon clip-path="url(#SVGID_190_)" fill="#FFFFFF" points="60,322.364 61.414,323.778 70.364,314.828 79.314,323.778 
		80.728,322.364 70.364,312 	"/>
</g>
<g>
	<defs>
		<rect id="SVGID_191_" width="800" height="800"/>
	</defs>
	<clipPath id="SVGID_192_">
		<use xlink:href="#SVGID_191_"  overflow="visible"/>
	</clipPath>
	<polygon clip-path="url(#SVGID_192_)" fill="#FFFFFF" points="103.364,257.728 104.778,256.314 95.828,247.364 104.778,238.414 
		103.364,237 93,247.364 	"/>
</g>
<g>
	<defs>
		<rect id="SVGID_193_" width="800" height="800"/>
	</defs>
	<clipPath id="SVGID_194_">
		<use xlink:href="#SVGID_193_"  overflow="visible"/>
	</clipPath>
	<polygon clip-path="url(#SVGID_194_)" fill="#FFFFFF" points="124.414,237 123,238.414 131.95,247.364 123,256.314 
		124.414,257.729 134.778,247.364 	"/>
</g>
<polygon fill="#FFFFFF" points="152,239 169,248 152,257 "/>
<polygon fill="#FFFFFF" points="326,195 339.222,202 326,209 "/>
<g>
	<rect x="185" y="239" fill="#FFFFFF" width="4" height="18"/>
	<rect x="193" y="239" fill="#FFFFFF" width="4" height="18"/>
</g>
<g>
	<path fill="#4DBFA3" d="M57,481.5c0,9.112-7.387,16.5-16.5,16.5S24,490.612,24,481.5S31.387,465,40.5,465S57,472.388,57,481.5"/>
	<path fill="#FFFFFF" d="M51,475.778c-0.7,0.311-1.451,0.52-2.239,0.611c0.806-0.48,1.424-1.246,1.714-2.154
		c-0.753,0.444-1.587,0.771-2.475,0.944c-0.711-0.758-1.725-1.229-2.845-1.229c-2.152,0-3.898,1.746-3.898,3.896
		c0,0.308,0.034,0.604,0.101,0.891c-3.24-0.163-6.113-1.715-8.035-4.073c-0.335,0.576-0.528,1.245-0.528,1.959
		c0,1.354,0.688,2.546,1.734,3.245c-0.639-0.021-1.24-0.195-1.765-0.487c-0.001,0.019-0.001,0.032-0.001,0.049
		c0,1.891,1.345,3.467,3.127,3.822c-0.327,0.09-0.671,0.137-1.027,0.137c-0.251,0-0.495-0.022-0.733-0.068
		c0.496,1.549,1.936,2.676,3.641,2.708c-1.333,1.045-3.014,1.668-4.84,1.668c-0.314,0-0.625-0.021-0.93-0.057
		c1.725,1.106,3.774,1.753,5.976,1.753c7.169,0,11.09-5.939,11.09-11.092c0-0.169-0.003-0.337-0.011-0.505
		C49.816,477.246,50.477,476.561,51,475.778"/>
</g>
<g>
	<path fill="#4DBFA3" d="M97,481.5c0,9.112-7.387,16.5-16.5,16.5S64,490.612,64,481.5S71.387,465,80.5,465S97,472.388,97,481.5"/>
	<path fill="#FFFFFF" d="M81.971,491v-8.667h2.909l0.436-3.377h-3.345v-2.157c0-0.978,0.271-1.645,1.674-1.645h1.789v-3.021
		c-0.309-0.04-1.371-0.133-2.606-0.133c-2.579,0-4.344,1.574-4.344,4.465v2.491h-2.917v3.377h2.917V491H81.971z"/>
</g>
<g>
	<path fill="#4DBFA3" d="M137,481.5c0,9.112-7.387,16.5-16.5,16.5s-16.5-7.388-16.5-16.5s7.387-16.5,16.5-16.5
		S137,472.388,137,481.5"/>
	<g>
		<path fill="#FFFFFF" d="M123.634,476.706h2.16l-1.416,6.288c-0.071,0.312-0.168,0.696-0.168,1.032
			c0,0.312,0.097,0.526,0.384,0.526c1.345,0,2.856-1.654,2.856-4.318c0-4.032-2.976-6.192-6.864-6.192
			c-4.225,0-6.984,3.168-6.984,7.345c0,4.346,3.048,7.248,7.368,7.248c2.04,0,3.864-0.768,5.185-1.92h2.208
			c-1.728,2.521-4.44,3.984-7.561,3.984c-5.809,0-9.696-3.961-9.696-9.361c0-5.304,4.32-9.359,9.553-9.359
			c4.488,0,8.713,3.023,8.713,7.655c0,5.307-4.608,7.201-6.241,7.201c-0.864,0-1.32-0.504-1.464-1.104h-0.048
			c-0.433,0.601-1.272,1.104-2.328,1.104c-2.521,0-4.249-1.801-4.249-4.345c0-3.048,1.921-6.146,5.281-6.146
			c1.224,0,2.279,0.504,3,1.683L123.634,476.706z M120.562,478.842c-1.632,0-2.736,1.752-2.736,3.435
			c0,1.128,0.721,2.062,1.873,2.062c1.584,0,2.88-1.801,2.88-3.408C122.579,479.706,121.739,478.842,120.562,478.842z"/>
	</g>
</g>
<path fill="#FF947B" d="M197,481.5c0,9.112-7.387,16.5-16.5,16.5s-16.5-7.388-16.5-16.5s7.387-16.5,16.5-16.5S197,472.388,197,481.5
	"/>
<path fill="#FFFFFF" d="M191,476.265c-0.7,0.312-1.451,0.521-2.239,0.614c0.806-0.48,1.424-1.246,1.714-2.157
	c-0.753,0.447-1.587,0.771-2.475,0.946c-0.711-0.758-1.725-1.229-2.845-1.229c-2.152,0-3.898,1.743-3.898,3.896
	c0,0.306,0.034,0.604,0.101,0.888c-3.24-0.163-6.113-1.714-8.035-4.07c-0.335,0.575-0.528,1.245-0.528,1.959
	c0,1.353,0.688,2.546,1.734,3.244c-0.639-0.021-1.24-0.194-1.765-0.486c-0.001,0.016-0.001,0.032-0.001,0.049
	c0,1.889,1.345,3.464,3.127,3.822c-0.327,0.089-0.671,0.136-1.027,0.136c-0.251,0-0.495-0.023-0.733-0.069
	c0.496,1.551,1.936,2.677,3.641,2.707c-1.333,1.046-3.014,1.669-4.84,1.669c-0.314,0-0.625-0.02-0.93-0.056
	c1.725,1.107,3.774,1.753,5.976,1.753c7.169,0,11.09-5.938,11.09-11.092c0-0.168-0.003-0.337-0.011-0.504
	C189.816,477.733,190.477,477.047,191,476.265"/>
<g>
	<path fill="#FF947B" d="M237,481.5c0,9.112-7.387,16.5-16.5,16.5s-16.5-7.388-16.5-16.5s7.387-16.5,16.5-16.5
		S237,472.388,237,481.5"/>
	<path fill="#FFFFFF" d="M221.971,491v-8.667h2.909l0.436-3.377h-3.345v-2.157c0-0.978,0.271-1.645,1.674-1.645h1.789v-3.021
		c-0.309-0.04-1.371-0.133-2.606-0.133c-2.579,0-4.344,1.574-4.344,4.465v2.491h-2.917v3.377h2.917V491H221.971z"/>
</g>
<g>
	<path fill="#FF947B" d="M277,481.5c0,9.112-7.387,16.5-16.5,16.5s-16.5-7.388-16.5-16.5s7.387-16.5,16.5-16.5
		S277,472.388,277,481.5"/>
	<g>
		<path fill="#FFFFFF" d="M263.634,476.705h2.16l-1.416,6.289c-0.071,0.312-0.168,0.696-0.168,1.032
			c0,0.312,0.097,0.525,0.384,0.525c1.344,0,2.856-1.654,2.856-4.318c0-4.032-2.976-6.192-6.864-6.192
			c-4.225,0-6.984,3.168-6.984,7.345c0,4.347,3.048,7.249,7.368,7.249c2.04,0,3.864-0.769,5.185-1.921h2.208
			c-1.728,2.521-4.44,3.984-7.561,3.984c-5.809,0-9.696-3.96-9.696-9.36c0-5.305,4.32-9.361,9.553-9.361
			c4.488,0,8.713,3.024,8.713,7.657c0,5.307-4.608,7.2-6.241,7.2c-0.864,0-1.32-0.504-1.464-1.104h-0.048
			c-0.433,0.6-1.272,1.104-2.328,1.104c-2.521,0-4.249-1.8-4.249-4.344c0-3.049,1.921-6.146,5.281-6.146
			c1.224,0,2.279,0.504,3,1.682L263.634,476.705z M260.562,478.842c-1.632,0-2.736,1.752-2.736,3.434
			c0,1.129,0.721,2.062,1.873,2.062c1.584,0,2.88-1.8,2.88-3.408C262.578,479.706,261.738,478.842,260.562,478.842z"/>
	</g>
</g>
<g>
	<path fill="#EECB3B" d="M337,481.5c0,9.112-7.387,16.5-16.5,16.5s-16.5-7.388-16.5-16.5s7.387-16.5,16.5-16.5
		S337,472.388,337,481.5"/>
	<path fill="#FFFFFF" d="M331,475.607c-0.7,0.311-1.451,0.52-2.239,0.611c0.808-0.48,1.424-1.246,1.714-2.154
		c-0.753,0.444-1.587,0.771-2.475,0.943c-0.711-0.757-1.725-1.229-2.845-1.229c-2.152,0-3.898,1.746-3.898,3.896
		c0,0.308,0.034,0.604,0.103,0.891c-3.24-0.163-6.113-1.717-8.035-4.073c-0.335,0.576-0.528,1.245-0.528,1.959
		c0,1.354,0.688,2.546,1.734,3.245c-0.641-0.021-1.24-0.195-1.767-0.487c-0.001,0.017-0.001,0.032-0.001,0.049
		c0,1.891,1.347,3.465,3.127,3.822c-0.327,0.089-0.671,0.137-1.025,0.137c-0.251,0-0.495-0.022-0.733-0.068
		c0.496,1.549,1.938,2.676,3.641,2.708c-1.333,1.045-3.014,1.668-4.84,1.668c-0.312,0-0.625-0.021-0.93-0.057
		c1.725,1.106,3.773,1.752,5.976,1.752c7.169,0,11.092-5.938,11.092-11.091c0-0.169-0.003-0.337-0.013-0.505
		C329.816,477.075,330.477,476.39,331,475.607"/>
</g>
<g>
	<path fill="#EECB3B" d="M377,481.5c0,9.112-7.387,16.5-16.5,16.5s-16.5-7.388-16.5-16.5s7.387-16.5,16.5-16.5
		S377,472.388,377,481.5"/>
	<path fill="#FFFFFF" d="M361.971,491v-8.667h2.909l0.438-3.377h-3.347v-2.157c0-0.978,0.271-1.645,1.674-1.645h1.789v-3.021
		c-0.309-0.04-1.369-0.133-2.604-0.133c-2.579,0-4.344,1.574-4.344,4.465v2.491h-2.917v3.377h2.917V491H361.971z"/>
</g>
<g>
	<path fill="#EECB3B" d="M417,481.5c0,9.112-7.388,16.5-16.5,16.5c-9.113,0-16.5-7.388-16.5-16.5s7.387-16.5,16.5-16.5
		C409.612,465,417,472.388,417,481.5"/>
	<g>
		<path fill="#FFFFFF" d="M403.634,476.706h2.16l-1.416,6.288c-0.071,0.312-0.168,0.696-0.168,1.032
			c0,0.312,0.097,0.526,0.384,0.526c1.347,0,2.856-1.654,2.856-4.318c0-4.032-2.978-6.192-6.864-6.192
			c-4.224,0-6.984,3.168-6.984,7.345c0,4.346,3.05,7.248,7.368,7.248c2.04,0,3.864-0.768,5.187-1.92h2.208
			c-1.729,2.521-4.44,3.984-7.562,3.984c-5.808,0-9.694-3.961-9.694-9.361c0-5.304,4.318-9.359,9.552-9.359
			c4.488,0,8.713,3.023,8.713,7.655c0,5.307-4.608,7.201-6.241,7.201c-0.864,0-1.32-0.504-1.464-1.104h-0.048
			c-0.435,0.601-1.272,1.104-2.328,1.104c-2.521,0-4.249-1.801-4.249-4.345c0-3.048,1.921-6.146,5.281-6.146
			c1.224,0,2.277,0.504,3,1.683L403.634,476.706z M400.562,478.842c-1.634,0-2.736,1.752-2.736,3.435
			c0,1.128,0.721,2.062,1.873,2.062c1.584,0,2.88-1.801,2.88-3.408C402.578,479.706,401.738,478.842,400.562,478.842z"/>
	</g>
</g>
<g>
	<path fill="#164A52" d="M487,481.5c0,9.112-7.388,16.5-16.5,16.5s-16.5-7.388-16.5-16.5s7.388-16.5,16.5-16.5
		S487,472.388,487,481.5"/>
	<path fill="#FFFFFF" d="M481,475.607c-0.699,0.311-1.45,0.52-2.239,0.611c0.808-0.48,1.424-1.246,1.715-2.154
		c-0.754,0.444-1.588,0.771-2.476,0.943c-0.711-0.757-1.725-1.229-2.846-1.229c-2.152,0-3.897,1.746-3.897,3.896
		c0,0.308,0.034,0.604,0.103,0.891c-3.239-0.163-6.112-1.717-8.034-4.073c-0.336,0.576-0.528,1.245-0.528,1.959
		c0,1.354,0.688,2.546,1.733,3.245c-0.64-0.021-1.239-0.195-1.767-0.487c-0.001,0.017-0.001,0.032-0.001,0.049
		c0,1.891,1.347,3.465,3.127,3.822c-0.327,0.089-0.671,0.137-1.024,0.137c-0.251,0-0.495-0.022-0.733-0.068
		c0.496,1.549,1.938,2.676,3.642,2.708c-1.334,1.045-3.015,1.668-4.841,1.668c-0.312,0-0.625-0.021-0.931-0.057
		c1.725,1.106,3.773,1.752,5.976,1.752c7.171,0,11.093-5.938,11.093-11.091c0-0.169-0.003-0.337-0.014-0.505
		C479.816,477.075,480.477,476.39,481,475.607"/>
</g>
<g>
	<path fill="#164A52" d="M527,481.5c0,9.112-7.388,16.5-16.5,16.5s-16.5-7.388-16.5-16.5s7.388-16.5,16.5-16.5
		S527,472.388,527,481.5"/>
	<path fill="#FFFFFF" d="M511.972,491v-8.667h2.908l0.438-3.377h-3.347v-2.157c0-0.978,0.271-1.645,1.673-1.645h1.789v-3.021
		c-0.31-0.04-1.369-0.133-2.604-0.133c-2.579,0-4.344,1.574-4.344,4.465v2.491h-2.917v3.377h2.917V491H511.972z"/>
</g>
<g>
	<path fill="#164A52" d="M567,481.5c0,9.112-7.388,16.5-16.5,16.5s-16.5-7.388-16.5-16.5s7.388-16.5,16.5-16.5
		S567,472.388,567,481.5"/>
	<g>
		<path fill="#FFFFFF" d="M553.635,476.706h2.159l-1.416,6.288c-0.071,0.312-0.168,0.696-0.168,1.032
			c0,0.312,0.097,0.526,0.384,0.526c1.345,0,2.857-1.654,2.857-4.318c0-4.032-2.979-6.192-6.865-6.192
			c-4.225,0-6.984,3.168-6.984,7.345c0,4.346,3.051,7.248,7.369,7.248c2.039,0,3.863-0.768,5.186-1.92h2.209
			c-1.729,2.521-4.441,3.984-7.562,3.984c-5.809,0-9.695-3.961-9.695-9.361c0-5.304,4.319-9.359,9.554-9.359
			c4.489,0,8.713,3.023,8.713,7.655c0,5.307-4.607,7.201-6.24,7.201c-0.865,0-1.321-0.504-1.465-1.104h-0.048
			c-0.435,0.601-1.272,1.104-2.328,1.104c-2.521,0-4.249-1.801-4.249-4.345c0-3.048,1.922-6.146,5.281-6.146
			c1.225,0,2.277,0.504,3,1.683L553.635,476.706z M550.562,478.842c-1.635,0-2.736,1.752-2.736,3.435
			c0,1.128,0.721,2.062,1.872,2.062c1.585,0,2.88-1.801,2.88-3.408C552.578,479.706,551.738,478.842,550.562,478.842z"/>
	</g>
</g>
<g>
	<polygon fill="#333333" points="468.926,48.4 466.529,50.832 457.492,59.767 455.091,57.338 464.062,48.4 455.091,39.429 
		457.492,37 466.529,45.935 	"/>
	<rect x="444" y="46.689" fill="#333333" width="20.542" height="3.39"/>
</g>
<g>
	<polygon fill="#FFFFFF" points="503.926,48.4 501.529,50.832 492.492,59.767 490.091,57.338 499.062,48.4 490.091,39.429 
		492.492,37 501.529,45.935 	"/>
	<rect x="479" y="46.689" fill="#FFFFFF" width="20.542" height="3.39"/>
</g>
<g id="Layer_2">
</g>
<circle fill="#333334" cx="40.5" cy="543.5" r="17.5"/>
<g>
	<path fill="#FFFFFF" d="M42.4,548.7l-3,3c-0.7,0.7-1.4,1.1-2.301,1.399c-0.899,0.2-1.8,0.2-2.699,0c-0.9-0.199-1.7-0.699-2.4-1.399
		s-1.1-1.5-1.4-2.4c-0.199-0.899-0.199-1.8,0-2.7c0.2-0.8,0.7-1.6,1.4-2.199l2.7-2.7c-0.101,1,0,2,0.399,3L33.7,546.1
		c-0.5,0.601-0.8,1.2-0.8,2c0,0.801,0.3,1.4,0.8,2c0.5,0.601,1.2,0.801,2,0.801s1.399-0.301,2-0.801l3-3c0.6-0.5,0.8-1.199,0.8-2
		c0-0.8-0.3-1.399-0.8-2c-0.2-0.199-0.3-0.5-0.3-0.899c0-0.4,0.1-0.601,0.3-0.9s0.5-0.399,0.899-0.399c0.4,0,0.601,0.1,0.9,0.399
		c0.7,0.7,1.1,1.5,1.3,2.4c0.2,0.899,0.2,1.8,0,2.7C43.5,547.3,43,548.1,42.4,548.7z M48.2,542.9l-2.7,2.699c0.1-1,0-2-0.4-3
		l1.4-1.399c0.5-0.601,0.8-1.2,0.8-2s-0.3-1.4-0.8-2c-0.5-0.601-1.2-0.8-2-0.8s-1.4,0.3-2,0.8l-3,3c-0.5,0.6-0.8,1.2-0.8,2
		s0.3,1.399,0.8,2c0.3,0.2,0.4,0.5,0.4,0.8s-0.101,0.6-0.4,0.9c-0.2,0.199-0.5,0.399-0.8,0.399s-0.601-0.1-0.9-0.399
		c-0.7-0.7-1.1-1.5-1.3-2.4s-0.2-1.8,0-2.7c0.2-0.899,0.7-1.7,1.3-2.3l3-3c0.7-0.7,1.5-1.1,2.4-1.4c0.899-0.3,1.8-0.199,2.7,0
		c0.899,0.2,1.699,0.7,2.3,1.4c0.7,0.7,1.1,1.4,1.399,2.3c0.301,0.9,0.2,1.8,0,2.7C49.4,541.4,48.8,542.3,48.2,542.9z"/>
</g>
<circle fill="#4DBFA3" cx="86.5" cy="543.5" r="17.5"/>
<g>
	<path fill="#FFFFFF" d="M88.4,548.7l-3,3c-0.7,0.7-1.4,1.1-2.301,1.399c-0.899,0.2-1.8,0.2-2.699,0c-0.9-0.199-1.7-0.699-2.4-1.399
		s-1.1-1.5-1.4-2.4c-0.199-0.899-0.199-1.8,0-2.7c0.2-0.8,0.7-1.6,1.4-2.199l2.7-2.7c-0.101,1,0,2,0.399,3L79.7,546.1
		c-0.5,0.601-0.8,1.2-0.8,2c0,0.801,0.3,1.4,0.8,2c0.5,0.601,1.2,0.801,2,0.801s1.399-0.301,2-0.801l3-3c0.6-0.5,0.8-1.199,0.8-2
		c0-0.8-0.3-1.399-0.8-2c-0.2-0.199-0.3-0.5-0.3-0.899c0-0.4,0.1-0.601,0.3-0.9s0.5-0.399,0.899-0.399c0.4,0,0.601,0.1,0.9,0.399
		c0.7,0.7,1.1,1.5,1.3,2.4c0.2,0.899,0.2,1.8,0,2.7C89.5,547.3,89,548.1,88.4,548.7z M94.2,542.9l-2.7,2.699c0.1-1,0-2-0.4-3
		l1.4-1.399c0.5-0.601,0.8-1.2,0.8-2s-0.3-1.4-0.8-2c-0.5-0.601-1.2-0.8-2-0.8s-1.4,0.3-2,0.8l-3,3c-0.5,0.6-0.8,1.2-0.8,2
		s0.3,1.399,0.8,2c0.3,0.2,0.4,0.5,0.4,0.8s-0.101,0.6-0.4,0.9c-0.2,0.199-0.5,0.399-0.8,0.399s-0.601-0.1-0.9-0.399
		c-0.7-0.7-1.1-1.5-1.3-2.4s-0.2-1.8,0-2.7c0.2-0.899,0.7-1.7,1.3-2.3l3-3c0.7-0.7,1.5-1.1,2.4-1.4c0.899-0.3,1.8-0.199,2.7,0
		c0.899,0.2,1.699,0.7,2.3,1.4c0.7,0.7,1.1,1.4,1.399,2.3c0.301,0.9,0.2,1.8,0,2.7C95.4,541.4,94.8,542.3,94.2,542.9z"/>
</g>
<circle fill="#FF947B" cx="128.5" cy="543.5" r="17.5"/>
<g>
	<path fill="#FFFFFF" d="M130.4,548.7l-3,3c-0.7,0.7-1.4,1.1-2.301,1.399c-0.899,0.2-1.8,0.2-2.699,0
		c-0.9-0.199-1.7-0.699-2.4-1.399s-1.1-1.5-1.4-2.4c-0.199-0.899-0.199-1.8,0-2.7c0.2-0.8,0.7-1.6,1.4-2.199l2.7-2.7
		c-0.101,1,0,2,0.399,3L121.7,546.1c-0.5,0.601-0.8,1.2-0.8,2c0,0.801,0.3,1.4,0.8,2c0.5,0.601,1.2,0.801,2,0.801
		s1.399-0.301,2-0.801l3-3c0.6-0.5,0.8-1.199,0.8-2c0-0.8-0.3-1.399-0.8-2c-0.2-0.199-0.3-0.5-0.3-0.899c0-0.4,0.1-0.601,0.3-0.9
		s0.5-0.399,0.899-0.399c0.4,0,0.601,0.1,0.9,0.399c0.7,0.7,1.1,1.5,1.3,2.4c0.2,0.899,0.2,1.8,0,2.7
		C131.5,547.3,131,548.1,130.4,548.7z M136.2,542.9l-2.7,2.699c0.1-1,0-2-0.4-3l1.4-1.399c0.5-0.601,0.8-1.2,0.8-2s-0.3-1.4-0.8-2
		c-0.5-0.601-1.2-0.8-2-0.8s-1.4,0.3-2,0.8l-3,3c-0.5,0.6-0.8,1.2-0.8,2s0.3,1.399,0.8,2c0.3,0.2,0.4,0.5,0.4,0.8
		s-0.101,0.6-0.4,0.9c-0.2,0.199-0.5,0.399-0.8,0.399s-0.601-0.1-0.9-0.399c-0.7-0.7-1.1-1.5-1.3-2.4s-0.2-1.8,0-2.7
		c0.2-0.899,0.7-1.7,1.3-2.3l3-3c0.7-0.7,1.5-1.1,2.4-1.4c0.899-0.3,1.8-0.199,2.7,0c0.899,0.2,1.699,0.7,2.3,1.4
		c0.7,0.7,1.1,1.4,1.399,2.3c0.301,0.9,0.2,1.8,0,2.7C137.4,541.4,136.8,542.3,136.2,542.9z"/>
</g>
<circle fill="#EECB3B" cx="170.5" cy="543.5" r="17.5"/>
<g>
	<path fill="#FFFFFF" d="M172.4,548.7l-3,3c-0.7,0.7-1.4,1.1-2.301,1.399c-0.899,0.2-1.8,0.2-2.699,0
		c-0.9-0.199-1.7-0.699-2.4-1.399s-1.1-1.5-1.4-2.4c-0.199-0.899-0.199-1.8,0-2.7c0.2-0.8,0.7-1.6,1.4-2.199l2.7-2.7
		c-0.101,1,0,2,0.399,3L163.7,546.1c-0.5,0.601-0.8,1.2-0.8,2c0,0.801,0.3,1.4,0.8,2c0.5,0.601,1.2,0.801,2,0.801
		s1.399-0.301,2-0.801l3-3c0.6-0.5,0.8-1.199,0.8-2c0-0.8-0.3-1.399-0.8-2c-0.2-0.199-0.3-0.5-0.3-0.899c0-0.4,0.1-0.601,0.3-0.9
		s0.5-0.399,0.899-0.399c0.4,0,0.601,0.1,0.9,0.399c0.7,0.7,1.1,1.5,1.3,2.4c0.2,0.899,0.2,1.8,0,2.7
		C173.5,547.3,173,548.1,172.4,548.7z M178.2,542.9l-2.7,2.699c0.1-1,0-2-0.4-3l1.4-1.399c0.5-0.601,0.8-1.2,0.8-2s-0.3-1.4-0.8-2
		c-0.5-0.601-1.2-0.8-2-0.8s-1.4,0.3-2,0.8l-3,3c-0.5,0.6-0.8,1.2-0.8,2s0.3,1.399,0.8,2c0.3,0.2,0.4,0.5,0.4,0.8
		s-0.101,0.6-0.4,0.9c-0.2,0.199-0.5,0.399-0.8,0.399s-0.601-0.1-0.9-0.399c-0.7-0.7-1.1-1.5-1.3-2.4s-0.2-1.8,0-2.7
		c0.2-0.899,0.7-1.7,1.3-2.3l3-3c0.7-0.7,1.5-1.1,2.4-1.4c0.899-0.3,1.8-0.199,2.7,0c0.899,0.2,1.699,0.7,2.3,1.4
		c0.7,0.7,1.1,1.4,1.399,2.3c0.301,0.9,0.2,1.8,0,2.7C179.4,541.4,178.8,542.3,178.2,542.9z"/>
</g>
<circle fill="#EA5B5D" cx="298.5" cy="543.5" r="17.5"/>
<g>
	<path fill="#FFFFFF" d="M300.4,548.7l-3,3c-0.7,0.7-1.4,1.1-2.301,1.399c-0.899,0.2-1.8,0.2-2.699,0
		c-0.9-0.199-1.7-0.699-2.4-1.399s-1.1-1.5-1.4-2.4c-0.199-0.899-0.199-1.8,0-2.7c0.2-0.8,0.7-1.6,1.4-2.199l2.7-2.7
		c-0.101,1,0,2,0.399,3L291.7,546.1c-0.5,0.601-0.8,1.2-0.8,2c0,0.801,0.3,1.4,0.8,2c0.5,0.601,1.2,0.801,2,0.801
		s1.399-0.301,2-0.801l3-3c0.6-0.5,0.8-1.199,0.8-2c0-0.8-0.3-1.399-0.8-2c-0.2-0.199-0.3-0.5-0.3-0.899c0-0.4,0.1-0.601,0.3-0.9
		s0.5-0.399,0.899-0.399c0.4,0,0.601,0.1,0.9,0.399c0.7,0.7,1.1,1.5,1.3,2.4c0.2,0.899,0.2,1.8,0,2.7
		C301.5,547.3,301,548.1,300.4,548.7z M306.2,542.9l-2.7,2.699c0.1-1,0-2-0.4-3l1.4-1.399c0.5-0.601,0.8-1.2,0.8-2s-0.3-1.4-0.8-2
		c-0.5-0.601-1.2-0.8-2-0.8s-1.4,0.3-2,0.8l-3,3c-0.5,0.6-0.8,1.2-0.8,2s0.3,1.399,0.8,2c0.3,0.2,0.4,0.5,0.4,0.8
		s-0.101,0.6-0.4,0.9c-0.2,0.199-0.5,0.399-0.8,0.399s-0.601-0.1-0.9-0.399c-0.7-0.7-1.1-1.5-1.3-2.4s-0.2-1.8,0-2.7
		c0.2-0.899,0.7-1.7,1.3-2.3l3-3c0.7-0.7,1.5-1.1,2.4-1.4c0.899-0.3,1.8-0.199,2.7,0c0.899,0.2,1.699,0.7,2.3,1.4
		c0.7,0.7,1.1,1.4,1.399,2.3c0.301,0.9,0.2,1.8,0,2.7C307.4,541.4,306.8,542.3,306.2,542.9z"/>
</g>
<circle opacity="0" fill="#EECB3B" cx="215.5" cy="543.5" r="17.5"/>
<g>
	<path fill="#FFFFFF" d="M217.4,548.7l-3,3c-0.7,0.7-1.4,1.1-2.301,1.399c-0.899,0.2-1.8,0.2-2.699,0
		c-0.9-0.199-1.7-0.699-2.4-1.399s-1.1-1.5-1.4-2.4c-0.199-0.899-0.199-1.8,0-2.7c0.2-0.8,0.7-1.6,1.4-2.199l2.7-2.7
		c-0.101,1,0,2,0.399,3L208.7,546.1c-0.5,0.601-0.8,1.2-0.8,2c0,0.801,0.3,1.4,0.8,2c0.5,0.601,1.2,0.801,2,0.801
		s1.399-0.301,2-0.801l3-3c0.6-0.5,0.8-1.199,0.8-2c0-0.8-0.3-1.399-0.8-2c-0.2-0.199-0.3-0.5-0.3-0.899c0-0.4,0.1-0.601,0.3-0.9
		s0.5-0.399,0.899-0.399c0.4,0,0.601,0.1,0.9,0.399c0.7,0.7,1.1,1.5,1.3,2.4c0.2,0.899,0.2,1.8,0,2.7
		C218.5,547.3,218,548.1,217.4,548.7z M223.2,542.9l-2.7,2.699c0.1-1,0-2-0.4-3l1.4-1.399c0.5-0.601,0.8-1.2,0.8-2s-0.3-1.4-0.8-2
		c-0.5-0.601-1.2-0.8-2-0.8s-1.4,0.3-2,0.8l-3,3c-0.5,0.6-0.8,1.2-0.8,2s0.3,1.399,0.8,2c0.3,0.2,0.4,0.5,0.4,0.8
		s-0.101,0.6-0.4,0.9c-0.2,0.199-0.5,0.399-0.8,0.399s-0.601-0.1-0.9-0.399c-0.7-0.7-1.1-1.5-1.3-2.4s-0.2-1.8,0-2.7
		c0.2-0.899,0.7-1.7,1.3-2.3l3-3c0.7-0.7,1.5-1.1,2.4-1.4c0.899-0.3,1.8-0.199,2.7,0c0.899,0.2,1.699,0.7,2.3,1.4
		c0.7,0.7,1.1,1.4,1.399,2.3c0.301,0.9,0.2,1.8,0,2.7C224.4,541.4,223.8,542.3,223.2,542.9z"/>
</g>
<circle opacity="0" fill="#EECB3B" cx="258.366" cy="543.5" r="17.5"/>
<g>
	<path fill="#333334" d="M260.266,548.7l-3,3c-0.7,0.7-1.4,1.1-2.301,1.399c-0.899,0.2-1.8,0.2-2.699,0
		c-0.9-0.199-1.7-0.699-2.4-1.399s-1.1-1.5-1.4-2.4c-0.199-0.899-0.199-1.8,0-2.7c0.2-0.8,0.7-1.6,1.4-2.199l2.7-2.7
		c-0.101,1,0,2,0.399,3l-1.399,1.399c-0.5,0.601-0.8,1.2-0.8,2c0,0.801,0.3,1.4,0.8,2c0.5,0.601,1.2,0.801,2,0.801
		s1.399-0.301,2-0.801l3-3c0.6-0.5,0.8-1.199,0.8-2c0-0.8-0.3-1.399-0.8-2c-0.2-0.199-0.3-0.5-0.3-0.899c0-0.4,0.1-0.601,0.3-0.9
		s0.5-0.399,0.899-0.399c0.4,0,0.601,0.1,0.9,0.399c0.7,0.7,1.1,1.5,1.3,2.4c0.2,0.899,0.2,1.8,0,2.7
		C261.366,547.3,260.866,548.1,260.266,548.7z M266.066,542.9l-2.7,2.699c0.1-1,0-2-0.4-3l1.4-1.399c0.5-0.601,0.8-1.2,0.8-2
		s-0.3-1.4-0.8-2c-0.5-0.601-1.2-0.8-2-0.8s-1.4,0.3-2,0.8l-3,3c-0.5,0.6-0.8,1.2-0.8,2s0.3,1.399,0.8,2c0.3,0.2,0.4,0.5,0.4,0.8
		s-0.101,0.6-0.4,0.9c-0.2,0.199-0.5,0.399-0.8,0.399s-0.601-0.1-0.9-0.399c-0.7-0.7-1.1-1.5-1.3-2.4s-0.2-1.8,0-2.7
		c0.2-0.899,0.7-1.7,1.3-2.3l3-3c0.7-0.7,1.5-1.1,2.4-1.4c0.899-0.3,1.8-0.199,2.7,0c0.899,0.2,1.699,0.7,2.3,1.4
		c0.7,0.7,1.1,1.4,1.399,2.3c0.301,0.9,0.2,1.8,0,2.7C267.266,541.4,266.666,542.3,266.066,542.9z"/>
</g>
<g>
	<defs>
		<rect id="SVGID_195_" width="800" height="800"/>
	</defs>
	<clipPath id="SVGID_196_">
		<use xlink:href="#SVGID_195_"  overflow="visible"/>
	</clipPath>
	
		<rect x="-23.5" y="-24.5" clip-path="url(#SVGID_196_)" fill="none" stroke="#000000" stroke-miterlimit="10" width="925" height="918"/>
</g>
<path fill="#EA5B5D" d="M627,481.5c0,9.112-7.388,16.5-16.5,16.5s-16.5-7.388-16.5-16.5s7.388-16.5,16.5-16.5S627,472.388,627,481.5
	"/>
<path fill="#FFFFFF" d="M621,475.778c-0.7,0.311-1.451,0.52-2.239,0.611c0.807-0.48,1.424-1.246,1.715-2.154
	c-0.754,0.444-1.588,0.771-2.476,0.944c-0.711-0.758-1.726-1.229-2.845-1.229c-2.152,0-3.898,1.746-3.898,3.896
	c0,0.308,0.034,0.604,0.102,0.891c-3.24-0.163-6.113-1.715-8.035-4.073c-0.336,0.576-0.528,1.245-0.528,1.959
	c0,1.354,0.688,2.546,1.733,3.245c-0.639-0.021-1.239-0.195-1.764-0.487c-0.002,0.019-0.002,0.032-0.002,0.049
	c0,1.891,1.346,3.467,3.127,3.822c-0.327,0.09-0.67,0.137-1.027,0.137c-0.25,0-0.494-0.022-0.732-0.068
	c0.496,1.549,1.935,2.676,3.642,2.708c-1.334,1.045-3.015,1.668-4.841,1.668c-0.313,0-0.625-0.021-0.93-0.057
	c1.725,1.106,3.773,1.753,5.977,1.753c7.169,0,11.09-5.939,11.09-11.092c0-0.169-0.005-0.337-0.012-0.505
	C619.814,477.246,620.478,476.561,621,475.778"/>
<path fill="#EA5B5D" d="M667,481.5c0,9.112-7.388,16.5-16.5,16.5s-16.5-7.388-16.5-16.5s7.388-16.5,16.5-16.5S667,472.388,667,481.5
	"/>
<path fill="#FFFFFF" d="M651.972,492.834v-9.96h2.908l0.436-3.881h-3.344v-2.479c0-1.123,0.271-1.89,1.674-1.89h1.789v-3.473
	c-0.31-0.046-1.371-0.152-2.606-0.152c-2.579,0-4.345,1.809-4.345,5.131v2.862h-2.916v3.881h2.916v9.96H651.972z"/>
<path fill="#EA5B5D" d="M707,481.5c0,9.112-7.388,16.5-16.5,16.5s-16.5-7.388-16.5-16.5s7.388-16.5,16.5-16.5S707,472.388,707,481.5
	"/>
<path fill="#FFFFFF" d="M693.634,476.706h2.16l-1.416,6.288c-0.07,0.312-0.169,0.696-0.169,1.032c0,0.312,0.099,0.526,0.386,0.526
	c1.344,0,2.855-1.654,2.855-4.318c0-4.032-2.977-6.192-6.864-6.192c-4.226,0-6.983,3.168-6.983,7.345
	c0,4.346,3.047,7.248,7.367,7.248c2.04,0,3.864-0.768,5.186-1.92h2.207c-1.728,2.521-4.439,3.984-7.561,3.984
	c-5.809,0-9.695-3.961-9.695-9.361c0-5.304,4.319-9.359,9.553-9.359c4.488,0,8.713,3.023,8.713,7.655
	c0,5.307-4.607,7.201-6.241,7.201c-0.864,0-1.319-0.504-1.465-1.104h-0.047c-0.433,0.601-1.272,1.104-2.329,1.104
	c-2.52,0-4.249-1.801-4.249-4.345c0-3.048,1.922-6.146,5.282-6.146c1.224,0,2.279,0.504,3,1.683L693.634,476.706z M690.562,478.842
	c-1.631,0-2.735,1.752-2.735,3.435c0,1.128,0.721,2.062,1.873,2.062c1.584,0,2.88-1.801,2.88-3.408
	C692.579,479.706,691.739,478.842,690.562,478.842"/>
<path fill="#EA5B5D" d="M73,617c0,13.808-11.193,25-25,25s-25-11.192-25-25c0-13.807,11.193-25,25-25S73,603.193,73,617"/>
<path fill="#EA5B5D" d="M143,617c0,13.808-11.193,25-25,25c-13.807,0-25-11.192-25-25c0-13.807,11.193-25,25-25
	C131.807,592,143,603.193,143,617"/>
<path fill="#EA5B5D" d="M213,617c0,13.808-11.193,25-25,25s-25-11.192-25-25c0-13.807,11.193-25,25-25S213,603.193,213,617"/>
<polygon fill="#FCFCFC" points="130,617.5 111,628 111,607 "/>
<path fill="#F9F9F9" d="M47.5,613.068c-1.93,0-3.5,1.57-3.5,3.5c0,1.931,1.57,3.5,3.5,3.5s3.5-1.569,3.5-3.5
	C51,614.639,49.43,613.068,47.5,613.068"/>
<path fill="#FFFFFF" d="M58.065,607.082l-12-0.092l0.007-1c0.004-0.552-0.44-1.004-0.992-1.009l-5-0.039
	c-0.552-0.004-1.003,0.44-1.008,0.992l-0.008,1l-2-0.017c-1.657-0.012-3.01,1.32-3.023,2.979l-0.101,13
	c-0.013,1.656,1.32,3.01,2.977,3.021l20.999,0.164c1.657,0.013,3.01-1.32,3.023-2.979l0.1-13
	C61.055,608.447,59.723,607.094,58.065,607.082 M47.45,622c-3.033-0.022-5.48-2.508-5.457-5.541s2.509-5.481,5.542-5.459
	c3.033,0.023,5.481,2.51,5.458,5.543S50.483,622.023,47.45,622"/>
<path fill="#F9F9F9" d="M197,612.922v-1.547c0-5.203-3.785-8.98-9-8.98s-9,3.793-9,9.02v1.508c-3.171,1.127-5,4.054-5,7.498
	c0,4.418,3,8,8,8v-17.006c0-4.158,3.014-6.02,6-6.02s6,1.85,6,5.98v17.045c5,0,8-3.582,8-8C202,616.977,200.171,614.051,197,612.922
	"/>
<polygon fill="#EA5B5D" points="355.222,195.414 361.172,201.364 349,201.364 349,203.364 361.172,203.364 355.222,209.312 
	356.637,210.729 365,202.364 356.637,194 "/>
<polygon fill="#EA5B5D" points="238.728,278.414 237.314,277 228.364,285.95 219.414,277 218,278.414 228.364,288.778 "/>
<polygon fill="#EA5B5D" points="248,287.364 249.414,288.778 258.363,279.828 267.314,288.778 268.729,287.364 258.363,277 "/>
</svg>
